<svg xmlns="http://www.w3.org/2000/svg" viewBox="0 0 31 31"><defs><style>.cls-1{fill:#1b9dce;}.cls-2{fill:#fff;}</style></defs><title>icon-rebar</title><g id="Layer_2" data-name="Layer 2"><g id="Main"><circle class="cls-1" cx="15.5" cy="15.5" r="15.5"/><rect class="cls-2" x="8.5" y="10.5" width="14" height="10"/><path class="cls-2" d="M11,21.5a1.38,1.38,0,0,1-1.38-1.38V10.88a1.38,1.38,0,0,1,2.76,0v9.24A1.38,1.38,0,0,1,11,21.5Z"/><path class="cls-2" d="M15.5,21.5a1.38,1.38,0,0,1-1.38-1.38V10.88a1.38,1.38,0,1,1,2.76,0v9.24A1.38,1.38,0,0,1,15.5,21.5Z"/><path class="cls-2" d="M20,21.5a1.38,1.38,0,0,1-1.38-1.38V10.88a1.38,1.38,0,1,1,2.76,0v9.24A1.38,1.38,0,0,1,20,21.5Z"/></g></g></svg>