<?xml version="1.0" encoding="utf-8"?>
<!-- Generator: Adobe Illustrator 23.0.3, SVG Export Plug-In . SVG Version: 6.00 Build 0)  -->
<svg version="1.1" id="Layer_1" xmlns="http://www.w3.org/2000/svg" xmlns:xlink="http://www.w3.org/1999/xlink" x="0px" y="0px"
	 viewBox="0 0 24 24" style="enable-background:new 0 0 24 24;" xml:space="preserve">
<style type="text/css">
	.st0{fill:none;}
	.st1{fill:#EBEBED;}
</style>
<path class="st0" d="M0,0h24v24H0V0z"/>
<g>
	<path class="st1" d="M20,6h-8l-2-2H4C2.9,4,2,4.9,2,6v12c0,1.1,0.9,2,2,2h16c1.1,0,2-0.9,2-2V8C22,6.9,21.1,6,20,6z M13.6,16.7v1.2
		h-1.7v-1.2c-1.1-0.2-2-0.9-2.1-2.2H11c0.1,0.7,0.5,1.2,1.7,1.2c1.3,0,1.5-0.6,1.5-1c0-0.5-0.3-1-1.7-1.4C11,12.9,10,12.3,10,11
		c0-1.1,0.9-1.8,2-2V7.7h1.7v1.2c1.2,0.3,1.8,1.2,1.8,2.2h-1.3c0-0.7-0.4-1.2-1.4-1.2s-1.5,0.4-1.5,1c0,0.5,0.4,0.9,1.7,1.2
		s2.7,0.9,2.7,2.5C15.6,15.8,14.7,16.5,13.6,16.7z"/>
</g>
</svg>
