<?xml version="1.0" encoding="utf-8"?>
<!-- Generator: Adobe Illustrator 23.0.3, SVG Export Plug-In . SVG Version: 6.00 Build 0)  -->
<svg version="1.1" id="Layer_1" xmlns="http://www.w3.org/2000/svg" xmlns:xlink="http://www.w3.org/1999/xlink" x="0px" y="0px"
	 viewBox="0 0 24 24" style="enable-background:new 0 0 24 24;" xml:space="preserve">
<style type="text/css">
	.st0{fill:none;}
	.st1{fill:#EBEBED;}
</style>
<path class="st0" d="M0,0h24v24H0V0z"/>
<g>
	<path class="st1" d="M18.9,2.8h-1v-2h-2v2H8.1v-2h-2v2h-1c-1.1,0-2,0.9-2,2v13.7c0,1.1,0.9,2,2,2h13.7c1.1,0,2-0.9,2-2V4.8
		C20.8,3.7,19.9,2.8,18.9,2.8z M18.9,18.5H5.1V7.7h13.7V18.5z"/>
	<path class="st1" d="M12.1,12.7C11.3,12.6,11,12.4,11,12s0.4-0.7,1-0.7c0.7,0,0.9,0.3,0.9,0.8h0.8c0-0.6-0.4-1.2-1.2-1.4V9.9h-1.1
		v0.8c-0.7,0.2-1.3,0.6-1.3,1.3c0,0.9,0.7,1.3,1.7,1.5c0.9,0.2,1.1,0.5,1.1,0.9c0,0.3-0.2,0.7-1,0.7c-0.8,0-1.1-0.3-1.1-0.8H10
		c0,0.8,0.6,1.3,1.4,1.4v0.8h1.1v-0.8c0.7-0.1,1.3-0.6,1.3-1.3C13.9,13.3,13,12.9,12.1,12.7z"/>
</g>
</svg>
