<?xml version="1.0" encoding="utf-8"?>
<!-- Generator: Adobe Illustrator 23.0.3, SVG Export Plug-In . SVG Version: 6.00 Build 0)  -->
<svg version="1.1" id="Layer_1" xmlns="http://www.w3.org/2000/svg" xmlns:xlink="http://www.w3.org/1999/xlink" x="0px" y="0px"
	 viewBox="0 0 24 24" style="enable-background:new 0 0 24 24;" xml:space="preserve">
<style type="text/css">
	.st0{fill:none;}
	.st1{fill:#EBEBED;}
</style>
<path class="st0" d="M0,0h24v24H0V0z"/>
<path class="st1" d="M13.9,1.4H6.3c-1,0-1.9,0.8-1.9,1.9v15.4c0,1,0.8,1.9,1.9,1.9h11.6c1,0,1.9-0.8,1.9-1.9V7.1L13.9,1.4z
	 M15.9,16.7H8.1v-1.9h7.7C15.9,14.9,15.9,16.7,15.9,16.7z M15.9,12.9H8.1V11h7.7C15.9,11,15.9,12.9,15.9,12.9z M12.9,8.1V2.9
	l5.3,5.2H12.9z"/>
</svg>
