<?xml version="1.0" encoding="utf-8"?>
<!-- Generator: Adobe Illustrator 23.0.3, SVG Export Plug-In . SVG Version: 6.00 Build 0)  -->
<svg version="1.1" id="Layer_1" xmlns="http://www.w3.org/2000/svg" xmlns:xlink="http://www.w3.org/1999/xlink" x="0px" y="0px"
	 viewBox="0 0 24 24" style="enable-background:new 0 0 24 24;" xml:space="preserve">
<style type="text/css">
	.st0{fill:none;}
</style>
<path class="st0" d="M0,0h24v24H0V0z"/>
<path d="M9.4,10.5l4.8-8.3C13.5,2.1,12.8,2,12,2C9.6,2,7.4,2.8,5.7,4.3l3.7,6.4C9.3,10.6,9.4,10.5,9.4,10.5z M21.5,9
	c-0.9-2.9-3.1-5.3-6-6.3L11.9,9H21.5z M21.8,10h-7.5l0.3,0.5l4.8,8.3C21,17,22,14.6,22,12C22,11.3,21.9,10.6,21.8,10z M8.5,12
	L4.6,5.3C3,7,2,9.4,2,12c0,0.7,0.1,1.4,0.2,2h7.5L8.5,12z M2.5,15c0.9,2.9,3.2,5.3,6,6.3l3.7-6.3H2.5z M13.7,15l-3.9,6.8
	c0.7,0.1,1.4,0.2,2.2,0.2c2.4,0,4.6-0.9,6.3-2.3l-3.7-6.4C14.7,13.4,13.7,15,13.7,15z"/>
</svg>
