<?xml version="1.0" encoding="utf-8"?>
<!-- Generator: Adobe Illustrator 23.0.3, SVG Export Plug-In . SVG Version: 6.00 Build 0)  -->
<svg version="1.1" id="Layer_1" xmlns="http://www.w3.org/2000/svg" xmlns:xlink="http://www.w3.org/1999/xlink" x="0px" y="0px"
	 viewBox="0 0 24 24" style="enable-background:new 0 0 24 24;" xml:space="preserve">
<style type="text/css">
	.st0{fill:none;}
</style>
<path class="st0" d="M0,0h24v24H0V0z"/>
<path d="M21.4,11.6l-9-9C12,2.2,11.5,2,11,2H4C2.9,2,2,2.9,2,4v7c0,0.5,0.2,1,0.6,1.4l9,9C12,21.8,12.5,22,13,22s1-0.2,1.4-0.6l7-7
	C21.8,14,22,13.5,22,13S21.8,11.9,21.4,11.6z M5.5,7C4.7,7,4,6.3,4,5.5S4.7,4,5.5,4S7,4.7,7,5.5S6.3,7,5.5,7z M12.8,15.5v1.1h-1.6
	v-1.1c-1-0.2-1.8-0.8-1.9-2h1.1c0.1,0.6,0.5,1.1,1.5,1.1c1.1,0,1.4-0.6,1.4-0.9c0-0.5-0.3-0.9-1.6-1.2c-1.4-0.3-2.4-0.9-2.4-2.1
	c0-1,0.8-1.7,1.8-1.9V7.3h1.6v1.1c1.1,0.3,1.6,1.1,1.7,2h-1.1c0-0.6-0.4-1.1-1.3-1.1c-0.9,0-1.4,0.4-1.4,1c0,0.5,0.4,0.8,1.6,1.1
	c1.2,0.3,2.4,0.8,2.4,2.3C14.6,14.8,13.8,15.4,12.8,15.5z"/>
</svg>
