<?xml version="1.0" encoding="utf-8"?>
<!-- Generator: Adobe Illustrator 23.0.3, SVG Export Plug-In . SVG Version: 6.00 Build 0)  -->
<svg version="1.1" id="Layer_1" xmlns="http://www.w3.org/2000/svg" xmlns:xlink="http://www.w3.org/1999/xlink" x="0px" y="0px"
	 viewBox="0 0 24 24" style="enable-background:new 0 0 24 24;" xml:space="preserve">
<style type="text/css">
	.st0{fill:none;}
	.st1{fill:#EBEBED;}
</style>
<g>
	<path class="st0" d="M0.9,1.7H23v20.5H0.9V1.7z"/>
	<path class="st1" d="M19.6,3.1H4.4c-0.9,0-0.7,0.8-0.7,1.7v9.3c0,0.7,0.5,0.7,1,0.7v5.4c0,0.4,0.4,0.8,0.8,0.8h0.8
		c0.5,0,0.8-0.3,0.8-0.8v-0.8h9.7v0.8c0,0.4,0.4,0.8,0.8,0.8h0.7c0.5,0,0.8-0.3,0.8-0.8v-5.4c0.6,0,1,0,1-0.7V4.7
		C20.3,3.9,20.5,3.1,19.6,3.1z M7.6,17.2c-0.6,0-1.2-0.5-1.2-1.1S7,15,7.6,15s1.2,0.5,1.2,1.1C8.8,16.7,8.2,17.2,7.6,17.2z
		 M16.4,17.2c-0.6,0-1.2-0.5-1.2-1.1s0.6-1.1,1.2-1.1c0.6,0,1.2,0.5,1.2,1.1S17.1,17.2,16.4,17.2z M6.4,13.5L7.6,10h8.8l1.2,3.4H6.4
		V13.5z"/>
</g>
</svg>
