<?xml version="1.0" encoding="utf-8"?>
<!-- Generator: Adobe Illustrator 23.0.3, SVG Export Plug-In . SVG Version: 6.00 Build 0)  -->
<svg version="1.1" id="Documents" xmlns="http://www.w3.org/2000/svg" xmlns:xlink="http://www.w3.org/1999/xlink" x="0px" y="0px"
	 viewBox="0 0 658 610" style="enable-background:new 0 0 658 610;" xml:space="preserve">
<style type="text/css">
	.st0{fill:url(#SVGID_1_);}
	.st1{fill:url(#SVGID_2_);stroke:#87888A;stroke-width:0.25;}
	.st2{opacity:0.6;fill:#CECCC9;enable-background:new    ;}
	.st3{fill:#FDFDFD;}
	.st4{opacity:0.4;}
	.st5{fill:#FFFFFF;}
	.st6{fill:#000204;}
	.st7{fill:#6F706F;}
	.st8{fill:#7C7D7B;}
	.st9{fill:url(#SVGID_3_);}
	.st10{fill:url(#SVGID_4_);}
	.st11{fill:url(#SVGID_5_);stroke:#87888A;stroke-width:0.25;}
	.st12{fill:url(#SVGID_6_);}
	.st13{fill:url(#SVGID_7_);}
	.st14{opacity:0.39;}
	.st15{fill:url(#SVGID_8_);}
	.st16{fill:url(#SVGID_9_);}
	.st17{fill:url(#SVGID_10_);stroke:#87888A;stroke-width:0.25;}
	.st18{fill:#FFFFFF;stroke:#A4A4A1;stroke-width:0.5;stroke-miterlimit:10;}
	.st19{fill:url(#SVGID_11_);}
	.st20{fill:url(#SVGID_12_);}
	.st21{fill:url(#SVGID_13_);}
	.st22{fill:url(#SVGID_14_);}
	.st23{fill:url(#SVGID_15_);stroke:#87888A;stroke-width:0.25;}
	.st24{fill:#0B72B5;}
	.st25{fill:#E9A19E;}
	.st26{fill:url(#SVGID_16_);}
	.st27{fill:url(#SVGID_17_);}
	.st28{fill:url(#SVGID_18_);stroke:#87888A;stroke-width:0.25;}
	.st29{fill:url(#SVGID_19_);}
	.st30{fill:url(#SVGID_20_);}
	.st31{fill:#5286C1;}
	.st32{fill:#EC9431;}
	.st33{fill:#C60724;}
	.st34{fill:#68AF23;}
	.st35{fill:url(#SVGID_21_);}
	.st36{fill:url(#SVGID_22_);stroke:#87888A;stroke-width:0.25;}
	.st37{fill:url(#SVGID_23_);}
	.st38{fill:#684692;}
	.st39{fill:#C6C6C3;}
	.st40{fill:url(#SVGID_24_);}
	.st41{fill:url(#SVGID_25_);stroke:#87888A;stroke-width:0.25;}
	.st42{fill:url(#SVGID_26_);}
	.st43{fill:url(#SVGID_27_);}
	.st44{fill:url(#SVGID_28_);}
	.st45{fill:url(#SVGID_29_);}
	.st46{fill:url(#SVGID_30_);}
	.st47{fill:url(#SVGID_31_);}
	.st48{fill:url(#SVGID_32_);stroke:#87888A;stroke-width:0.25;}
	.st49{fill:url(#SVGID_33_);}
	.st50{fill:#3688B9;}
	.st51{fill:#BFBEBC;}
	.st52{fill:url(#SVGID_34_);}
	.st53{fill:url(#SVGID_35_);stroke:#87888A;stroke-width:0.25;}
	.st54{fill:url(#SVGID_36_);}
	.st55{fill:#1C67A6;}
	.st56{fill:#C2C2C2;}
	.st57{fill:url(#SVGID_37_);}
	.st58{fill:url(#SVGID_38_);stroke:#87888A;stroke-width:0.25;}
	.st59{fill:url(#SVGID_39_);}
	.st60{fill-rule:evenodd;clip-rule:evenodd;fill:url(#SVGID_40_);}
	.st61{fill-rule:evenodd;clip-rule:evenodd;fill:url(#SVGID_41_);}
	.st62{fill-rule:evenodd;clip-rule:evenodd;fill:url(#SVGID_42_);}
	.st63{fill:#ECE44B;}
	.st64{fill-rule:evenodd;clip-rule:evenodd;fill:url(#SVGID_43_);stroke:#000204;stroke-miterlimit:10;}
	.st65{fill:url(#SVGID_44_);stroke:#87888A;stroke-width:0.25;}
	.st66{opacity:0.41;fill:#FFFFFF;enable-background:new    ;}
	.st67{opacity:0.4;fill:#FFFFFF;enable-background:new    ;}
	.st68{fill:url(#SVGID_45_);}
	.st69{fill:url(#SVGID_46_);stroke:#9A4619;stroke-width:0.25;}
	.st70{fill:url(#SVGID_47_);stroke:#9A4619;stroke-width:0.25;}
	.st71{fill:#818381;}
	.st72{fill:none;stroke:#878885;stroke-width:0.5;}
	.st73{fill:url(#SVGID_48_);}
	.st74{fill:url(#SVGID_49_);stroke:#87888A;stroke-width:0.25;}
	.st75{fill:url(#SVGID_50_);}
	.st76{fill:url(#SVGID_51_);}
	.st77{fill:#95C372;}
	.st78{fill:none;}
	.st79{opacity:0.3;fill:#C2C2C2;enable-background:new    ;}
	.st80{fill:url(#SVGID_52_);}
	.st81{fill:url(#SVGID_53_);}
	.st82{fill:#FFFFFF;stroke:#9C9E9F;stroke-width:0.25;stroke-miterlimit:10;}
	.st83{fill:url(#SVGID_54_);}
	.st84{fill:url(#SVGID_55_);stroke:#87888A;stroke-width:0.25;}
	.st85{fill:url(#SVGID_56_);stroke:#9A4619;stroke-width:0.25;}
	.st86{fill:#578FBD;}
	.st87{fill:#D96A44;}
	.st88{fill:#5C8B47;}
	.st89{fill:url(#SVGID_57_);}
	.st90{fill:url(#SVGID_58_);stroke:#87888A;stroke-width:0.25;}
	.st91{fill:url(#SVGID_59_);}
	.st92{fill:url(#SVGID_60_);}
	.st93{fill:url(#SVGID_61_);}
	.st94{fill:url(#SVGID_62_);stroke:#87888A;stroke-width:0.25;}
	.st95{fill:none;stroke:#969693;stroke-width:0.25;}
	.st96{fill:url(#SVGID_63_);}
	.st97{fill:url(#SVGID_64_);}
	.st98{fill:url(#SVGID_65_);}
	.st99{fill:url(#SVGID_66_);stroke:#87888A;stroke-width:0.25;}
	.st100{fill:#D3D4D1;}
	.st101{fill:url(#SVGID_67_);}
	.st102{fill:url(#SVGID_68_);}
</style>
<g id="ZIP">
	<g>
		
			<radialGradient id="SVGID_1_" cx="-1058.222" cy="-8149.8213" r="70.8921" gradientTransform="matrix(1 0 0 -4.870000e-02 1307.5 -259.8553)" gradientUnits="userSpaceOnUse">
			<stop  offset="0" style="stop-color:#3C3E3E"/>
			<stop  offset="0.1053" style="stop-color:#454646;stop-opacity:0.8947"/>
			<stop  offset="0.2673" style="stop-color:#5B5C5A;stop-opacity:0.7327"/>
			<stop  offset="0.4659" style="stop-color:#7F807E;stop-opacity:0.5341"/>
			<stop  offset="0.6933" style="stop-color:#B2B2AF;stop-opacity:0.3067"/>
			<stop  offset="0.942" style="stop-color:#F0EFED;stop-opacity:5.800000e-02"/>
			<stop  offset="1" style="stop-color:#FFFFFF;stop-opacity:0"/>
		</radialGradient>
		<ellipse class="st0" cx="249.3" cy="137" rx="76" ry="3.8"/>
		<g>
			
				<radialGradient id="SVGID_2_" cx="250.86" cy="529.669" r="64.2204" gradientTransform="matrix(1 0 0 -1 0 612)" gradientUnits="userSpaceOnUse">
				<stop  offset="0" style="stop-color:#FFFFFF"/>
				<stop  offset="0.3377" style="stop-color:#FAFAFA"/>
				<stop  offset="0.72" style="stop-color:#EDEDED"/>
				<stop  offset="1" style="stop-color:#DEDEDE"/>
			</radialGradient>
			<path class="st1" d="M210.9,26.7c-1.9,0-3.5,1.6-3.5,3.5v104.2c0,1.9,1.6,3.5,3.5,3.5h79.9c1.9,0,3.5-1.6,3.5-3.5v-84l-23.7-23.7
				C270.6,26.7,210.9,26.7,210.9,26.7z"/>
		</g>
		<path class="st2" d="M277.4,51.7l16.7-1.1l-23.6-23.7l-1.1,16.8C269.3,48.1,273,51.7,277.4,51.7z"/>
		<path class="st3" d="M277.9,51l16.2-0.5l-23.6-23.7L270,43.2C270,47.5,273.5,51,277.9,51z"/>
		<g class="st4">
			<path class="st5" d="M212.2,27.3h-0.9c-1.9,0-3.4,1.5-3.4,3.4v29.9h0.9V30.7C208.8,28.8,210.3,27.3,212.2,27.3z"/>
		</g>
		<g>
			<g>
				<rect x="240" y="26.9" class="st6" width="21.6" height="74.5"/>
				<path class="st5" d="M252.6,64.4c0,1-0.8,1.9-1.9,1.9H246c-1,0-1.9-0.8-1.9-1.9l0,0c0-1,0.8-1.9,1.9-1.9h4.7
					C251.7,62.6,252.6,63.4,252.6,64.4L252.6,64.4z"/>
				<path class="st5" d="M257.6,69.2c0,1-0.8,1.9-1.9,1.9H251c-1,0-1.9-0.8-1.9-1.9l0,0c0-1,0.8-1.9,1.9-1.9h4.7
					C256.8,67.4,257.6,68.2,257.6,69.2L257.6,69.2z"/>
				<path class="st5" d="M252.6,74.4c0,1-0.8,1.9-1.9,1.9H246c-1,0-1.9-0.8-1.9-1.9l0,0c0-1,0.8-1.9,1.9-1.9h4.7
					C251.7,72.6,252.6,73.4,252.6,74.4L252.6,74.4z"/>
				<path class="st5" d="M257.6,79.2c0,1-0.8,1.9-1.9,1.9H251c-1,0-1.9-0.8-1.9-1.9l0,0c0-1,0.8-1.9,1.9-1.9h4.7
					C256.8,77.4,257.6,78.2,257.6,79.2L257.6,79.2z"/>
				<path class="st5" d="M252.7,84.5c0,1-0.8,1.9-1.9,1.9h-4.7c-1,0-1.9-0.8-1.9-1.9l0,0c0-1,0.8-1.9,1.9-1.9h4.7
					C251.9,82.6,252.7,83.4,252.7,84.5L252.7,84.5z"/>
				<path class="st5" d="M257.8,89.3c0,1-0.8,1.9-1.9,1.9h-4.7c-1,0-1.9-0.8-1.9-1.9l0,0c0-1,0.8-1.9,1.9-1.9h4.7
					C256.9,87.4,257.8,88.2,257.8,89.3L257.8,89.3z"/>
				<path class="st5" d="M252.7,94.5c0,1-0.8,1.9-1.9,1.9h-4.7c-1,0-1.9-0.8-1.9-1.9l0,0c0-1,0.8-1.9,1.9-1.9h4.7
					C251.9,92.6,252.7,93.4,252.7,94.5L252.7,94.5z"/>
				<path class="st7" d="M249.3,49.5c-1.8,0-3.3-0.6-4.1-1.5c-0.5-0.5-0.7-1.2-0.6-1.8l1.8-14.6c0.2-1.8,1.8-3.2,3.6-3.2h1.8
					c1.8,0,3.4,1.4,3.6,3.2l1.7,14.6c0.1,0.7-0.1,1.3-0.6,1.8c-0.8,0.9-2.4,1.5-4.2,1.5L249.3,49.5L249.3,49.5z"/>
				<path class="st5" d="M256.6,46.2c0.2,1.5-1.7,2.7-4.2,2.7h-3c-2.5,0-4.4-1.2-4.2-2.7l1.8-14.6c0.2-1.5,1.6-2.7,3.1-2.7h1.8
					c1.5,0,2.9,1.2,3,2.7L256.6,46.2z"/>
				<ellipse class="st8" cx="250.7" cy="44.5" rx="4.2" ry="3"/>
				<path class="st6" d="M250.7,47.2c-2.1,0-3.9-1.2-3.9-2.7s1.8-2.7,3.9-2.7c2.1,0,3.9,1.2,3.9,2.7S252.9,47.2,250.7,47.2
					L250.7,47.2z"/>
			</g>
		</g>
	</g>
	<path class="st5" d="M252.6,54.4c0,1-0.8,1.9-1.9,1.9H246c-1,0-1.9-0.8-1.9-1.9l0,0c0-1,0.8-1.9,1.9-1.9h4.7
		C251.7,52.6,252.6,53.4,252.6,54.4L252.6,54.4z"/>
	<path class="st5" d="M257.6,59.2c0,1-0.8,1.9-1.9,1.9H251c-1,0-1.9-0.8-1.9-1.9l0,0c0-1,0.8-1.9,1.9-1.9h4.7
		C256.8,57.4,257.6,58.2,257.6,59.2L257.6,59.2z"/>
	<g>
		
			<linearGradient id="SVGID_3_" gradientUnits="userSpaceOnUse" x1="250.861" y1="502.166" x2="250.861" y2="474.081" gradientTransform="matrix(1 0 0 -1 0 612)">
			<stop  offset="0" style="stop-color:#58585A"/>
			<stop  offset="1" style="stop-color:#000000"/>
		</linearGradient>
		<path class="st9" d="M207.4,134.4c0,1.9,1.6,3.5,3.5,3.5h79.9c1.9,0,3.5-1.6,3.5-3.5v-24.6h-86.9L207.4,134.4L207.4,134.4z"/>
	</g>
	<g>
		<path class="st5" d="M239.3,128.6l5.3-7.7l0-0.1h-4.9v-2.1h8.1v1.5l-5.2,7.6v0.1h5.3v2.1l-8.7,0L239.3,128.6L239.3,128.6z"/>
		<path class="st5" d="M252.2,118.7v11.2l-2.5,0v-11.2C249.6,118.7,252.2,118.7,252.2,118.7z"/>
		<path class="st5" d="M254.4,118.9c0.8-0.1,1.9-0.2,3.4-0.2c1.6,0,2.7,0.3,3.4,0.9c0.7,0.6,1.2,1.5,1.2,2.6c0,1.1-0.4,2-1,2.7
			c-0.9,0.8-2.1,1.2-3.6,1.2c-0.3,0-0.6,0-0.9-0.1v4h-2.5L254.4,118.9z M256.9,124c0.2,0,0.5,0.1,0.9,0.1c1.3,0,2.2-0.7,2.2-1.8
			c0-1-0.7-1.6-2-1.6c-0.5,0-0.9,0-1,0.1L256.9,124L256.9,124z"/>
	</g>
</g>
<g id="PDF">
	<g>
		
			<radialGradient id="SVGID_4_" cx="-738.222" cy="-8149.8213" r="70.8921" gradientTransform="matrix(1 0 0 -4.870000e-02 1307.5 -259.8553)" gradientUnits="userSpaceOnUse">
			<stop  offset="0" style="stop-color:#3C3E3E"/>
			<stop  offset="0.1053" style="stop-color:#454646;stop-opacity:0.8947"/>
			<stop  offset="0.2673" style="stop-color:#5B5C5A;stop-opacity:0.7327"/>
			<stop  offset="0.4659" style="stop-color:#7F807E;stop-opacity:0.5341"/>
			<stop  offset="0.6933" style="stop-color:#B2B2AF;stop-opacity:0.3067"/>
			<stop  offset="0.942" style="stop-color:#F0EFED;stop-opacity:5.800000e-02"/>
			<stop  offset="1" style="stop-color:#FFFFFF;stop-opacity:0"/>
		</radialGradient>
		<ellipse class="st10" cx="569.3" cy="137" rx="76" ry="3.8"/>
		<g>
			
				<radialGradient id="SVGID_5_" cx="570.86" cy="529.669" r="64.2204" gradientTransform="matrix(1 0 0 -1 0 612)" gradientUnits="userSpaceOnUse">
				<stop  offset="0" style="stop-color:#FFFFFF"/>
				<stop  offset="0.3377" style="stop-color:#FAFAFA"/>
				<stop  offset="0.72" style="stop-color:#EDEDED"/>
				<stop  offset="1" style="stop-color:#DEDEDE"/>
			</radialGradient>
			<path class="st11" d="M530.9,26.7c-1.9,0-3.5,1.6-3.5,3.5v104.2c0,1.9,1.6,3.5,3.5,3.5h79.9c1.9,0,3.5-1.6,3.5-3.5v-84
				l-23.7-23.7C590.6,26.7,530.9,26.7,530.9,26.7z"/>
		</g>
		
			<linearGradient id="SVGID_6_" gradientUnits="userSpaceOnUse" x1="536.3015" y1="499.47" x2="536.3015" y2="522.155" gradientTransform="matrix(1 0 0 -1 0 612)">
			<stop  offset="0" style="stop-color:#E1434F"/>
			<stop  offset="1" style="stop-color:#B40E2C"/>
		</linearGradient>
		<path class="st12" d="M545.2,112.5c0,0-5-14.4-17.7-22.7v9.5c0,0,6.6,4.5,8.9,13.2L545.2,112.5L545.2,112.5z"/>
		<g>
			
				<linearGradient id="SVGID_7_" gradientUnits="userSpaceOnUse" x1="561.97" y1="500.609" x2="561.97" y2="584.09" gradientTransform="matrix(1 0 0 -1 0 612)">
				<stop  offset="0" style="stop-color:#E1434F"/>
				<stop  offset="1" style="stop-color:#B40E2C"/>
			</linearGradient>
			<path class="st13" d="M590.4,38.6V27.9c-34.9,54.9-63,52.9-63,52.9v8c23.2,0.2,44.6-25.6,44.6-25.6c-12,21.3-12.5,48.3-12.5,48.3
				h29.8c-12.4-37.5-2.5-60.6,7.1-72.8C596.5,38.6,590.4,38.6,590.4,38.6z"/>
		</g>
		<path class="st2" d="M597.4,51.7l16.7-1.1l-23.6-23.7l-1.1,16.8C589.3,48.1,593,51.7,597.4,51.7z"/>
		<path class="st3" d="M597.9,51l16.2-0.5l-23.6-23.7L590,43.2C590,47.5,593.5,51,597.9,51z"/>
		<g class="st4">
			<path class="st5" d="M532.2,27.3h-0.9c-1.9,0-3.4,1.5-3.4,3.4v29.9h0.9V30.7C528.8,28.8,530.3,27.3,532.2,27.3z"/>
		</g>
		<g class="st14">
			<path class="st5" d="M590.9,43.1l0.4-15l-0.4-0.4L590.4,43c0,3.4,2.4,6.3,5.6,7.1C593,49.2,590.9,46.4,590.9,43.1z"/>
		</g>
	</g>
	<g>
		
			<linearGradient id="SVGID_8_" gradientUnits="userSpaceOnUse" x1="570.861" y1="501.609" x2="570.861" y2="473.524" gradientTransform="matrix(1 0 0 -1 0 612)">
			<stop  offset="0" style="stop-color:#E1434F"/>
			<stop  offset="1" style="stop-color:#B40E2C"/>
		</linearGradient>
		<path class="st15" d="M527.4,135c0,1.9,1.6,3.5,3.5,3.5h79.9c1.9,0,3.5-1.6,3.5-3.5v-24.6h-86.9L527.4,135L527.4,135z"/>
	</g>
	<g>
		<path class="st5" d="M556,119c0.8-0.1,1.9-0.2,3.4-0.2c1.6,0,2.7,0.3,3.4,0.9c0.7,0.6,1.2,1.5,1.2,2.6c0,1.1-0.3,2-1,2.7
			c-0.9,0.8-2.1,1.2-3.6,1.2c-0.3,0-0.6,0-0.9-0.1v4H556V119z M558.5,124.1c0.2,0.1,0.5,0.1,0.8,0.1c1.3,0,2.2-0.7,2.2-1.8
			c0-1-0.7-1.6-2-1.6c-0.5,0-0.8,0-1,0.1L558.5,124.1L558.5,124.1z"/>
		<path class="st5" d="M565.7,119c0.9-0.2,2.1-0.3,3.4-0.3c2.1,0,3.5,0.4,4.6,1.2c1.2,0.9,1.9,2.2,1.9,4.2c0,2.1-0.8,3.6-1.8,4.5
			c-1.2,1-3,1.4-5.2,1.4c-1.3,0-2.3-0.1-2.9-0.2L565.7,119L565.7,119z M568.2,128.1c0.2,0,0.6,0.1,0.9,0c2.3,0,3.8-1.2,3.8-3.9
			c0-2.3-1.4-3.6-3.6-3.6c-0.5,0-0.9,0-1.1,0.1L568.2,128.1L568.2,128.1z"/>
		<path class="st5" d="M577.3,118.8h6.8v2.1h-4.3l0,2.6h4v2.1h-4l0,4.5h-2.5L577.3,118.8L577.3,118.8z"/>
	</g>
</g>
<g id="JPG">
	<g>
		
			<radialGradient id="SVGID_9_" cx="-1218.222" cy="-17390.0684" r="70.8905" gradientTransform="matrix(1 0 0 -4.870000e-02 1307.5 -259.8553)" gradientUnits="userSpaceOnUse">
			<stop  offset="0" style="stop-color:#3C3E3E"/>
			<stop  offset="0.1053" style="stop-color:#454646;stop-opacity:0.8947"/>
			<stop  offset="0.2673" style="stop-color:#5B5C5A;stop-opacity:0.7327"/>
			<stop  offset="0.4659" style="stop-color:#7F807E;stop-opacity:0.5341"/>
			<stop  offset="0.6933" style="stop-color:#B2B2AF;stop-opacity:0.3067"/>
			<stop  offset="0.942" style="stop-color:#F0EFED;stop-opacity:5.800000e-02"/>
			<stop  offset="1" style="stop-color:#FFFFFF;stop-opacity:0"/>
		</radialGradient>
		<ellipse class="st16" cx="89.3" cy="587" rx="76" ry="3.8"/>
		<g>
			
				<radialGradient id="SVGID_10_" cx="90.86" cy="79.6685" r="64.2205" gradientTransform="matrix(1 0 0 -1 0 612)" gradientUnits="userSpaceOnUse">
				<stop  offset="0" style="stop-color:#FFFFFF"/>
				<stop  offset="0.3377" style="stop-color:#FAFAFA"/>
				<stop  offset="0.72" style="stop-color:#EDEDED"/>
				<stop  offset="1" style="stop-color:#DEDEDE"/>
			</radialGradient>
			<path class="st17" d="M50.9,476.7c-1.9,0-3.5,1.6-3.5,3.5v104.2c0,1.9,1.6,3.5,3.5,3.5h79.9c1.9,0,3.5-1.6,3.5-3.5v-84
				l-23.7-23.7L50.9,476.7L50.9,476.7z"/>
		</g>
		<g>
			<rect x="61.6" y="499" class="st18" width="58.2" height="43.9"/>
			<g>
				<g>
					
						<linearGradient id="SVGID_11_" gradientUnits="userSpaceOnUse" x1="-122.278" y1="1160.0808" x2="-109.8128" y2="1133.3551" gradientTransform="matrix(1 0 0 1 202.7803 -619.8906)">
						<stop  offset="0" style="stop-color:#FFFFFF"/>
						<stop  offset="1.100000e-03" style="stop-color:#ACDBEC"/>
						<stop  offset="1" style="stop-color:#0597B3"/>
					</linearGradient>
					<path class="st19" d="M65.7,502.5l0,25.2c4.2,0.1,9.4,0.8,14.8,2.3c3.5,0.9,6.7,2,9.6,3.3c3.4-0.7,7.5-1,12-0.8
						c5.1,0.2,9.8,1,13.4,2.1v-32H65.7L65.7,502.5z"/>
					
						<linearGradient id="SVGID_12_" gradientUnits="userSpaceOnUse" x1="90.616" y1="84.332" x2="90.616" y2="72.2271" gradientTransform="matrix(1 0 0 -1 0 612)">
						<stop  offset="0" style="stop-color:#B7C15D"/>
						<stop  offset="1" style="stop-color:#7FB61B"/>
					</linearGradient>
					<path class="st20" d="M102.1,532.4c-0.8,0-1.6,0-2.4,0c-3.6,0-6.9,0.3-9.8,0.8c-2.8-1.2-6-2.3-9.4-3.2
						c-5.5-1.5-10.6-2.2-14.8-2.3v12.1l15.5,0c0,0,0,0,0,0l0.7,0l33.5,0v-5.3C111.9,533.4,107.3,532.6,102.1,532.4z"/>
				</g>
				<g>
					<g>
						<path class="st5" d="M107.5,511.4c2.4,0.1,4.3,1.4,4.5,3.1c0.2,1.8-1.6,3.3-4.1,3.5c-2.2,0.2-12.8,0.2-14.8,0
							c-2.3-0.2-3.9-1.4-4.1-2.8c-0.3-2.1,1.4-3.3,4-3.7c-0.8-1.9,2.3-3.2,4.2-2c1-1.1,2.3-2,4.5-2.1
							C105.2,507.1,107.5,508.9,107.5,511.4z"/>
					</g>
				</g>
				<g>
					<g>
						<path class="st5" d="M77.4,520.7c0.8,0.1,1.4,0.6,1.5,1.2c0.1,0.7-0.5,1.3-1.4,1.4c-0.7,0.1-4.3,0.1-5,0
							c-0.8-0.1-1.3-0.5-1.4-1.1c-0.1-0.8,0.5-1.3,1.3-1.5c-0.3-0.7,0.8-1.3,1.4-0.8c0.3-0.4,0.8-0.8,1.5-0.8
							C76.6,519,77.4,519.8,77.4,520.7z"/>
					</g>
				</g>
			</g>
		</g>
		<path class="st2" d="M117.4,501.7l16.7-1.1l-23.6-23.7l-1.1,16.8C109.3,498.1,113,501.7,117.4,501.7z"/>
		<path class="st3" d="M117.9,501l16.2-0.5l-23.6-23.7l-0.5,16.3C110,497.5,113.5,501,117.9,501z"/>
		<g class="st4">
			<path class="st5" d="M52.2,477.3h-0.9c-1.9,0-3.4,1.5-3.4,3.4v29.9h0.9v-29.9C48.8,478.8,50.3,477.3,52.2,477.3z"/>
		</g>
		<g class="st14">
			<path class="st5" d="M110.9,493.1l0.4-15l-0.4-0.4l-0.4,15.3c0,3.4,2.4,6.3,5.6,7.1C113,499.2,110.9,496.4,110.9,493.1z"/>
		</g>
	</g>
	<g>
		
			<linearGradient id="SVGID_13_" gradientUnits="userSpaceOnUse" x1="90.861" y1="52.182" x2="90.861" y2="24.097" gradientTransform="matrix(1 0 0 -1 0 612)">
			<stop  offset="0" style="stop-color:#B7C15D"/>
			<stop  offset="1" style="stop-color:#7FB61B"/>
		</linearGradient>
		<path class="st21" d="M47.4,584.4c0,1.9,1.6,3.5,3.5,3.5h79.9c1.9,0,3.5-1.6,3.5-3.5v-24.6H47.4V584.4z"/>
	</g>
	<g>
		<path class="st5" d="M77.9,569h2.5l0,7.1c0,3.2-1.5,4.3-4,4.3c-0.6,0-1.4-0.1-1.9-0.3l0.3-2c0.4,0.1,0.8,0.2,1.3,0.2
			c1.1,0,1.7-0.5,1.7-2.2L77.9,569L77.9,569z"/>
		<path class="st5" d="M82.6,569.1c0.8-0.1,1.9-0.2,3.4-0.2c1.6,0,2.7,0.3,3.4,0.9c0.7,0.6,1.2,1.5,1.2,2.6s-0.4,2-1,2.7
			c-0.9,0.8-2.1,1.2-3.6,1.2c-0.3,0-0.6,0-0.9-0.1l0,4h-2.5V569.1z M85.1,574.2c0.2,0.1,0.5,0.1,0.8,0.1c1.3,0,2.2-0.7,2.2-1.8
			c0-1-0.7-1.6-2-1.6c-0.5,0-0.8,0-1,0.1V574.2z"/>
		<path class="st5" d="M101.6,579.7c-0.8,0.3-2.3,0.6-3.7,0.6c-2,0-3.5-0.5-4.6-1.5c-1-1-1.6-2.4-1.6-4.1c0-3.7,2.7-5.9,6.4-5.9
			c1.4,0,2.6,0.3,3.1,0.5l-0.5,2c-0.6-0.3-1.4-0.5-2.6-0.5c-2.1,0-3.7,1.2-3.7,3.6c0,2.3,1.5,3.7,3.5,3.7c0.6,0,1-0.1,1.2-0.2l0-2.4
			h-1.7l0-2l4.2,0L101.6,579.7z"/>
	</g>
</g>
<g id="TXT">
	<g>
		
			<radialGradient id="SVGID_14_" cx="-898.222" cy="-17390.0684" r="70.8904" gradientTransform="matrix(1 0 0 -4.870000e-02 1307.5 -259.8553)" gradientUnits="userSpaceOnUse">
			<stop  offset="0" style="stop-color:#3C3E3E"/>
			<stop  offset="0.1053" style="stop-color:#454646;stop-opacity:0.8947"/>
			<stop  offset="0.2673" style="stop-color:#5B5C5A;stop-opacity:0.7327"/>
			<stop  offset="0.4659" style="stop-color:#7F807E;stop-opacity:0.5341"/>
			<stop  offset="0.6933" style="stop-color:#B2B2AF;stop-opacity:0.3067"/>
			<stop  offset="0.942" style="stop-color:#F0EFED;stop-opacity:5.800000e-02"/>
			<stop  offset="1" style="stop-color:#FFFFFF;stop-opacity:0"/>
		</radialGradient>
		<ellipse class="st22" cx="409.3" cy="587" rx="76" ry="3.8"/>
		<g>
			
				<radialGradient id="SVGID_15_" cx="410.86" cy="79.6685" r="64.2205" gradientTransform="matrix(1 0 0 -1 0 612)" gradientUnits="userSpaceOnUse">
				<stop  offset="0" style="stop-color:#FFFFFF"/>
				<stop  offset="0.3377" style="stop-color:#FAFAFA"/>
				<stop  offset="0.72" style="stop-color:#EDEDED"/>
				<stop  offset="1" style="stop-color:#DEDEDE"/>
			</radialGradient>
			<path class="st23" d="M370.9,476.7c-1.9,0-3.5,1.6-3.5,3.5v104.2c0,1.9,1.6,3.5,3.5,3.5h79.9c1.9,0,3.5-1.6,3.5-3.5v-84
				l-23.7-23.7L370.9,476.7L370.9,476.7z"/>
		</g>
		<g>
			<g>
				<rect x="367.3" y="483.8" class="st24" width="68.9" height="1"/>
			</g>
			<g>
				<rect x="367.3" y="493.4" class="st24" width="68.9" height="1"/>
			</g>
			<g>
				<rect x="367.3" y="503" class="st24" width="86.6" height="1"/>
			</g>
			<g>
				<rect x="367.3" y="512.6" class="st24" width="86.6" height="1"/>
			</g>
			<g>
				<rect x="367.3" y="522.2" class="st24" width="86.6" height="1"/>
			</g>
			<g>
				<rect x="367.3" y="531.8" class="st24" width="86.6" height="1"/>
			</g>
			<g>
				<rect x="367.3" y="541.4" class="st24" width="86.6" height="1"/>
			</g>
			<g>
				<rect x="367.3" y="551" class="st24" width="86.6" height="1"/>
			</g>
			<g>
				<rect x="377.5" y="476.9" class="st25" width="1.3" height="83.4"/>
			</g>
		</g>
		<path class="st2" d="M437.4,501.7l16.7-1.1l-23.6-23.7l-1.1,16.8C429.3,498.1,433,501.7,437.4,501.7z"/>
		<path class="st3" d="M437.9,501l16.2-0.5l-23.6-23.7l-0.5,16.3C430,497.5,433.5,501,437.9,501z"/>
		<g class="st4">
			<path class="st5" d="M372.2,477.3h-0.9c-1.9,0-3.4,1.5-3.4,3.4v29.9h0.9v-29.9C368.8,478.8,370.3,477.3,372.2,477.3z"/>
		</g>
		<g class="st14">
			<path class="st5" d="M430.9,493.1l0.4-15l-0.4-0.4l-0.4,15.3c0,3.4,2.4,6.3,5.6,7.1C433,499.2,430.9,496.4,430.9,493.1z"/>
		</g>
	</g>
	<g>
		
			<linearGradient id="SVGID_16_" gradientUnits="userSpaceOnUse" x1="410.8766" y1="51.625" x2="410.8766" y2="23.541" gradientTransform="matrix(1.0005 0 0 -1 -0.2215 612)">
			<stop  offset="0" style="stop-color:#438EC8"/>
			<stop  offset="1" style="stop-color:#005194"/>
		</linearGradient>
		<path class="st26" d="M367.4,585c0,1.9,1.6,3.5,3.5,3.5h80c1.9,0,3.5-1.6,3.5-3.5v-24.6h-86.9L367.4,585L367.4,585z"/>
	</g>
	<g>
		<path class="st5" d="M398.5,569.9l-3,0v-2.1h8.6v2.1l-3.1,0v9.1h-2.5L398.5,569.9L398.5,569.9z"/>
		<path class="st5" d="M411.7,579l-1-2c-0.4-0.8-0.7-1.4-1-2h0c-0.2,0.7-0.5,1.2-0.9,2l-0.9,2H405l3.2-5.7l-3.1-5.5h2.9l1,2
			c0.3,0.7,0.6,1.2,0.8,1.9l0,0c0.3-0.7,0.5-1.2,0.8-1.9l0.9-2h2.9l-3.2,5.5l3.3,5.7L411.7,579L411.7,579z"/>
		<path class="st5" d="M418.3,569.9h-3v-2.1h8.6l0,2.1h-3.1v9.1h-2.5L418.3,569.9L418.3,569.9z"/>
	</g>
</g>
<g id="AVI">
	<g>
		
			<radialGradient id="SVGID_17_" cx="-1058.222" cy="-14309.9854" r="70.8883" gradientTransform="matrix(1 0 0 -4.870000e-02 1307.5 -259.8553)" gradientUnits="userSpaceOnUse">
			<stop  offset="0" style="stop-color:#3C3E3E"/>
			<stop  offset="0.1053" style="stop-color:#454646;stop-opacity:0.8947"/>
			<stop  offset="0.2673" style="stop-color:#5B5C5A;stop-opacity:0.7327"/>
			<stop  offset="0.4659" style="stop-color:#7F807E;stop-opacity:0.5341"/>
			<stop  offset="0.6933" style="stop-color:#B2B2AF;stop-opacity:0.3067"/>
			<stop  offset="0.942" style="stop-color:#F0EFED;stop-opacity:5.800000e-02"/>
			<stop  offset="1" style="stop-color:#FFFFFF;stop-opacity:0"/>
		</radialGradient>
		<ellipse class="st27" cx="249.3" cy="437" rx="76" ry="3.8"/>
		<g>
			
				<radialGradient id="SVGID_18_" cx="250.86" cy="229.6685" r="64.2205" gradientTransform="matrix(1 0 0 -1 0 612)" gradientUnits="userSpaceOnUse">
				<stop  offset="0" style="stop-color:#FFFFFF"/>
				<stop  offset="0.3377" style="stop-color:#FAFAFA"/>
				<stop  offset="0.72" style="stop-color:#EDEDED"/>
				<stop  offset="1" style="stop-color:#DEDEDE"/>
			</radialGradient>
			<path class="st28" d="M210.9,326.7c-1.9,0-3.5,1.6-3.5,3.5v104.2c0,1.9,1.6,3.5,3.5,3.5h79.9c1.9,0,3.5-1.6,3.5-3.5v-84
				l-23.7-23.7L210.9,326.7L210.9,326.7z"/>
		</g>
		<path class="st2" d="M277.4,351.7l16.7-1.1l-23.6-23.7l-1.1,16.8C269.3,348.1,273,351.7,277.4,351.7z"/>
		<path class="st3" d="M277.9,351l16.2-0.5l-23.6-23.7l-0.5,16.3C270,347.5,273.5,351,277.9,351z"/>
		<g class="st4">
			<path class="st5" d="M212.2,327.3h-0.9c-1.9,0-3.4,1.5-3.4,3.4v29.9h0.9v-29.9C208.8,328.8,210.3,327.3,212.2,327.3z"/>
		</g>
		<g class="st14">
			<path class="st5" d="M270.9,343.1l0.4-15l-0.4-0.4l-0.4,15.3c0,3.4,2.4,6.3,5.6,7.1C273,349.2,270.9,346.4,270.9,343.1z"/>
		</g>
	</g>
	<g>
		
			<linearGradient id="SVGID_19_" gradientUnits="userSpaceOnUse" x1="250.861" y1="201.784" x2="250.861" y2="173.699" gradientTransform="matrix(1 0 0 -1 0 612)">
			<stop  offset="0" style="stop-color:#438EC8"/>
			<stop  offset="1" style="stop-color:#005194"/>
		</linearGradient>
		<path class="st29" d="M207.4,434.8c0,1.9,1.6,3.5,3.5,3.5h79.9c1.9,0,3.5-1.6,3.5-3.5v-24.6h-86.9L207.4,434.8L207.4,434.8z"/>
	</g>
	<g>
		<path class="st5" d="M240.8,427l-0.8,2.9h-2.6l3.4-11.2h3.3l3.5,11.2h-2.7L244,427H240.8z M243.6,425.1l-0.7-2.4
			c-0.2-0.7-0.4-1.5-0.6-2.2h0c-0.2,0.7-0.3,1.5-0.5,2.2l-0.7,2.4H243.6z"/>
		<path class="st5" d="M250.7,429.9l-3.6-11.2l2.8,0l1.4,4.7c0.4,1.3,0.7,2.6,1,4h0.1c0.3-1.4,0.6-2.7,1-4l1.4-4.8l2.7,0l-3.8,11.2
			L250.7,429.9L250.7,429.9z"/>
		<path class="st5" d="M261.2,418.6v11.2h-2.5v-11.2H261.2z"/>
	</g>
	<g>
		
			<linearGradient id="SVGID_20_" gradientUnits="userSpaceOnUse" x1="249.627" y1="253.609" x2="249.627" y2="224.101" gradientTransform="matrix(1 0 0 -1 0 612)">
			<stop  offset="0" style="stop-color:#438EC8"/>
			<stop  offset="1" style="stop-color:#005194"/>
		</linearGradient>
		<circle class="st30" cx="249.6" cy="373.1" r="14.8"/>
		<path class="st31" d="M248.1,354.5v-3.4c-11,0.8-19.8,9.6-20.6,20.6h3.4C231.6,362.5,238.9,355.3,248.1,354.5z"/>
		<path class="st32" d="M251.2,391.9v3.4c11-0.8,19.8-9.6,20.6-20.6h-3.4C267.6,383.8,260.3,391.1,251.2,391.9z"/>
		<path class="st33" d="M230.9,374.8h-3.4c0.8,11,9.6,19.8,20.6,20.6V392C238.9,391.2,231.6,383.9,230.9,374.8z"/>
		<path class="st34" d="M268.4,371.7h3.4c-0.8-11-9.6-19.8-20.6-20.6v3.4C260.3,355.3,267.6,362.5,268.4,371.7z"/>
		<polygon class="st5" points="245.5,365.9 258.3,373.3 245.5,380.7 		"/>
	</g>
</g>
<g id="MP3">
	<g>
		
			<radialGradient id="SVGID_21_" cx="-1058.222" cy="-17390.0684" r="70.8905" gradientTransform="matrix(1 0 0 -4.870000e-02 1307.5 -259.8553)" gradientUnits="userSpaceOnUse">
			<stop  offset="0" style="stop-color:#3C3E3E"/>
			<stop  offset="0.1053" style="stop-color:#454646;stop-opacity:0.8947"/>
			<stop  offset="0.2673" style="stop-color:#5B5C5A;stop-opacity:0.7327"/>
			<stop  offset="0.4659" style="stop-color:#7F807E;stop-opacity:0.5341"/>
			<stop  offset="0.6933" style="stop-color:#B2B2AF;stop-opacity:0.3067"/>
			<stop  offset="0.942" style="stop-color:#F0EFED;stop-opacity:5.800000e-02"/>
			<stop  offset="1" style="stop-color:#FFFFFF;stop-opacity:0"/>
		</radialGradient>
		<ellipse class="st35" cx="249.3" cy="587" rx="76" ry="3.8"/>
		<g>
			
				<radialGradient id="SVGID_22_" cx="250.86" cy="79.6685" r="64.2205" gradientTransform="matrix(1 0 0 -1 0 612)" gradientUnits="userSpaceOnUse">
				<stop  offset="0" style="stop-color:#FFFFFF"/>
				<stop  offset="0.3377" style="stop-color:#FAFAFA"/>
				<stop  offset="0.72" style="stop-color:#EDEDED"/>
				<stop  offset="1" style="stop-color:#DEDEDE"/>
			</radialGradient>
			<path class="st36" d="M210.9,476.7c-1.9,0-3.5,1.6-3.5,3.5v104.2c0,1.9,1.6,3.5,3.5,3.5h79.9c1.9,0,3.5-1.6,3.5-3.5v-84
				l-23.7-23.7L210.9,476.7L210.9,476.7z"/>
		</g>
		<path class="st2" d="M277.4,501.7l16.7-1.1l-23.6-23.7l-1.1,16.8C269.3,498.1,273,501.7,277.4,501.7z"/>
		<path class="st3" d="M277.9,501l16.2-0.5l-23.6-23.7l-0.5,16.3C270,497.5,273.5,501,277.9,501z"/>
		<g class="st4">
			<path class="st5" d="M212.2,477.3h-0.9c-1.9,0-3.4,1.5-3.4,3.4v29.9h0.9v-29.9C208.8,478.8,210.3,477.3,212.2,477.3z"/>
		</g>
		<g class="st14">
			<path class="st5" d="M270.9,493.1l0.4-15l-0.4-0.4l-0.4,15.3c0,3.4,2.4,6.3,5.6,7.1C273,499.2,270.9,496.4,270.9,493.1z"/>
		</g>
	</g>
	<g>
		
			<linearGradient id="SVGID_23_" gradientUnits="userSpaceOnUse" x1="250.861" y1="52.182" x2="250.861" y2="24.097" gradientTransform="matrix(1 0 0 -1 0 612)">
			<stop  offset="0" style="stop-color:#B6639F"/>
			<stop  offset="1" style="stop-color:#754491"/>
		</linearGradient>
		<path class="st37" d="M207.4,584.4c0,1.9,1.6,3.5,3.5,3.5h79.9c1.9,0,3.5-1.6,3.5-3.5v-24.6h-86.9L207.4,584.4L207.4,584.4z"/>
	</g>
	<g>
		<path class="st5" d="M245,574.8c-0.1-1.3-0.1-3-0.1-4.6h0c-0.4,1.4-0.8,3-1.3,4.3l-1.4,4.4l-2,0l-1.2-4.3c-0.4-1.3-0.7-2.9-1-4.4
			h0c0,1.5-0.1,3.2-0.2,4.6l-0.2,4.3h-2.3l0.7-11.2l3.4,0l1.1,3.7c0.4,1.3,0.7,2.7,0.9,4h0.1c0.3-1.3,0.7-2.8,1.1-4l1.2-3.7l3.3,0
			l0.6,11.2h-2.5L245,574.8z"/>
		<path class="st5" d="M249.6,568.1c0.8-0.1,1.9-0.2,3.4-0.2c1.6,0,2.7,0.3,3.4,0.9c0.7,0.6,1.2,1.5,1.2,2.6c0,1.1-0.4,2-1,2.7
			c-0.9,0.8-2.1,1.2-3.6,1.2c-0.3,0-0.6,0-0.9-0.1v4h-2.5L249.6,568.1L249.6,568.1z M252.1,573.2c0.2,0.1,0.5,0.1,0.9,0.1
			c1.3,0,2.2-0.7,2.2-1.8c0-1-0.7-1.6-2-1.6c-0.5,0-0.9,0-1,0.1L252.1,573.2L252.1,573.2z"/>
		<path class="st5" d="M259.3,576.7c0.5,0.3,1.5,0.7,2.5,0.7c1.3,0,2-0.6,2-1.4c0-1.1-1.1-1.6-2.2-1.6h-1v-1.8h1
			c0.8,0,1.9-0.3,1.9-1.3c0-0.6-0.5-1.1-1.6-1.1c-0.9,0-1.8,0.4-2.2,0.7l-0.5-1.8c0.6-0.4,1.9-0.8,3.3-0.8c2.3,0,3.6,1.2,3.6,2.7
			c0,1.1-0.6,2.1-2,2.5v0c1.3,0.2,2.3,1.2,2.3,2.6c0,1.9-1.7,3.3-4.4,3.3c-1.4,0-2.6-0.4-3.2-0.7L259.3,576.7z"/>
	</g>
	
		<ellipse transform="matrix(0.9871 -0.1602 0.1602 0.9871 -80.0934 46.6314)" class="st38" cx="249.2" cy="520.1" rx="14.8" ry="14.8"/>
	<path class="st39" d="M247.6,501.4V498c-11,0.8-19.8,9.6-20.6,20.6h3.4C231.2,509.4,238.5,502.1,247.6,501.4z"/>
	<path class="st39" d="M250.8,538.7v3.4c11-0.8,19.8-9.6,20.6-20.6h-3.4C267.2,530.7,259.9,538,250.8,538.7z"/>
	<path class="st39" d="M230.5,521.7h-3.4c0.8,11,9.6,19.8,20.6,20.6v-3.4C238.5,538.1,231.2,530.8,230.5,521.7z"/>
	<path class="st39" d="M267.9,518.5h3.4c-0.8-11-9.6-19.8-20.6-20.6v3.4C259.9,502.1,267.2,509.4,267.9,518.5z"/>
	<path class="st5" d="M255.9,510.2l-11.5,2.1v0v13.1c-0.3-0.3-0.8-0.4-1.4-0.4c-0.7,0-1.5,0.3-2.1,0.9c-0.6,0.5-1.1,1.2-1.1,1.9
		c0,0.4,0.2,0.8,0.5,1.1c0.3,0.3,0.8,0.4,1.2,0.4c0.8,0,1.6-0.3,2.2-0.8c0.7-0.5,1.1-1.2,1.1-2v-12.7l10.6-1.9v11.5
		c-0.3-0.3-0.8-0.4-1.4-0.4c-0.7,0-1.5,0.3-2.1,0.9c-0.6,0.5-1.1,1.2-1.1,1.9c0,0.4,0.2,0.8,0.5,1.1c0.3,0.3,0.8,0.4,1.2,0.4
		c0.8,0,1.6-0.3,2.2-0.8c0.7-0.5,1.1-1.2,1.1-2L255.9,510.2z"/>
</g>
<g id="PNG">
	<g>
		
			<radialGradient id="SVGID_24_" cx="-1218.222" cy="-11229.9033" r="70.8938" gradientTransform="matrix(1 0 0 -4.870000e-02 1307.5 -259.8553)" gradientUnits="userSpaceOnUse">
			<stop  offset="0" style="stop-color:#3C3E3E"/>
			<stop  offset="0.1053" style="stop-color:#454646;stop-opacity:0.8947"/>
			<stop  offset="0.2673" style="stop-color:#5B5C5A;stop-opacity:0.7327"/>
			<stop  offset="0.4659" style="stop-color:#7F807E;stop-opacity:0.5341"/>
			<stop  offset="0.6933" style="stop-color:#B2B2AF;stop-opacity:0.3067"/>
			<stop  offset="0.942" style="stop-color:#F0EFED;stop-opacity:5.800000e-02"/>
			<stop  offset="1" style="stop-color:#FFFFFF;stop-opacity:0"/>
		</radialGradient>
		<ellipse class="st40" cx="89.3" cy="287" rx="76" ry="3.8"/>
		<g>
			
				<radialGradient id="SVGID_25_" cx="90.86" cy="379.669" r="64.2205" gradientTransform="matrix(1 0 0 -1 0 612)" gradientUnits="userSpaceOnUse">
				<stop  offset="0" style="stop-color:#FFFFFF"/>
				<stop  offset="0.3377" style="stop-color:#FAFAFA"/>
				<stop  offset="0.72" style="stop-color:#EDEDED"/>
				<stop  offset="1" style="stop-color:#DEDEDE"/>
			</radialGradient>
			<path class="st41" d="M50.9,176.7c-1.9,0-3.5,1.6-3.5,3.5v104.2c0,1.9,1.6,3.5,3.5,3.5h79.9c1.9,0,3.5-1.6,3.5-3.5v-84
				l-23.7-23.7H50.9z"/>
		</g>
		<path class="st2" d="M117.4,201.7l16.7-1.1l-23.6-23.7l-1.1,16.8C109.3,198.1,113,201.7,117.4,201.7z"/>
		<path class="st3" d="M117.9,201l16.2-0.5l-23.6-23.7l-0.5,16.3C110,197.5,113.5,201,117.9,201z"/>
		<g class="st4">
			<path class="st5" d="M52.2,177.3h-0.9c-1.9,0-3.4,1.5-3.4,3.4v29.9h0.9v-29.9C48.8,178.8,50.3,177.3,52.2,177.3z"/>
		</g>
		<g class="st14">
			<path class="st5" d="M110.9,193.1l0.4-15l-0.4-0.4l-0.4,15.3c0,3.4,2.4,6.3,5.6,7.1C113,199.2,110.9,196.4,110.9,193.1z"/>
		</g>
	</g>
	<g>
		
			<linearGradient id="SVGID_26_" gradientUnits="userSpaceOnUse" x1="90.861" y1="352.166" x2="90.861" y2="324.081" gradientTransform="matrix(1 0 0 -1 0 612)">
			<stop  offset="0" style="stop-color:#6DAAC7"/>
			<stop  offset="1" style="stop-color:#44748D"/>
		</linearGradient>
		<path class="st42" d="M47.4,284.4c0,1.9,1.6,3.5,3.5,3.5h79.9c1.9,0,3.5-1.6,3.5-3.5v-24.6H47.4V284.4z"/>
	</g>
	<g>
		<path class="st5" d="M74.7,269c0.8-0.1,1.9-0.2,3.4-0.2c1.6,0,2.7,0.3,3.4,0.9c0.7,0.6,1.2,1.5,1.2,2.6c0,1.1-0.4,2-1,2.7
			c-0.9,0.8-2.1,1.2-3.6,1.2c-0.3,0-0.6,0-0.9-0.1v4h-2.5L74.7,269z M77.2,274c0.2,0,0.5,0.1,0.8,0.1c1.3,0,2.2-0.7,2.2-1.8
			c0-1-0.7-1.6-2-1.6c-0.5,0-0.8,0-1,0.1L77.2,274L77.2,274z"/>
		<path class="st5" d="M84.4,280v-11.2h3l2.3,4.1c0.7,1.2,1.3,2.6,1.8,3.8h0c-0.1-1.5-0.2-3-0.2-4.7v-3.3h2.3l0,11.2H91l-2.4-4.3
			c-0.7-1.2-1.4-2.6-1.9-4l-0.1,0c0.1,1.5,0.1,3.1,0.1,4.9v3.4H84.4z"/>
		<path class="st5" d="M105.2,279.5c-0.8,0.3-2.3,0.6-3.7,0.6c-2,0-3.5-0.5-4.6-1.5c-1-1-1.6-2.4-1.6-4.1c0-3.7,2.7-5.9,6.4-5.9
			c1.4,0,2.6,0.3,3.1,0.5l-0.5,2c-0.6-0.3-1.4-0.5-2.6-0.5c-2.1,0-3.7,1.2-3.7,3.6c0,2.3,1.5,3.7,3.5,3.7c0.6,0,1-0.1,1.2-0.1l0-2.4
			H101l0-2l4.2,0L105.2,279.5z"/>
	</g>
	<g>
		
			<linearGradient id="SVGID_27_" gradientUnits="userSpaceOnUse" x1="90.7935" y1="411.477" x2="90.7935" y2="397.703" gradientTransform="matrix(1 0 0 -1 0 612)">
			<stop  offset="0" style="stop-color:#6DAAC7"/>
			<stop  offset="1" style="stop-color:#44748D"/>
		</linearGradient>
		<rect x="83.9" y="200.5" class="st43" width="13.8" height="13.8"/>
		
			<linearGradient id="SVGID_28_" gradientUnits="userSpaceOnUse" x1="77.02" y1="397.702" x2="77.02" y2="383.929" gradientTransform="matrix(1 0 0 -1 0 612)">
			<stop  offset="0" style="stop-color:#6DAAC7"/>
			<stop  offset="1" style="stop-color:#44748D"/>
		</linearGradient>
		<rect x="70.1" y="214.3" class="st44" width="13.8" height="13.8"/>
		
			<linearGradient id="SVGID_29_" gradientUnits="userSpaceOnUse" x1="104.5675" y1="397.702" x2="104.5675" y2="383.929" gradientTransform="matrix(1 0 0 -1 0 612)">
			<stop  offset="0" style="stop-color:#6DAAC7"/>
			<stop  offset="1" style="stop-color:#44748D"/>
		</linearGradient>
		<rect x="97.7" y="214.3" class="st45" width="13.8" height="13.8"/>
		
			<linearGradient id="SVGID_30_" gradientUnits="userSpaceOnUse" x1="90.7935" y1="383.929" x2="90.7935" y2="370.154" gradientTransform="matrix(1 0 0 -1 0 612)">
			<stop  offset="0" style="stop-color:#6DAAC7"/>
			<stop  offset="1" style="stop-color:#44748D"/>
		</linearGradient>
		<rect x="83.9" y="228.1" class="st46" width="13.8" height="13.8"/>
	</g>
</g>
<g id="CSS">
	<g>
		
			<radialGradient id="SVGID_31_" cx="-1058.222" cy="-11229.9033" r="70.8938" gradientTransform="matrix(1 0 0 -4.870000e-02 1307.5 -259.8553)" gradientUnits="userSpaceOnUse">
			<stop  offset="0" style="stop-color:#3C3E3E"/>
			<stop  offset="0.1053" style="stop-color:#454646;stop-opacity:0.8947"/>
			<stop  offset="0.2673" style="stop-color:#5B5C5A;stop-opacity:0.7327"/>
			<stop  offset="0.4659" style="stop-color:#7F807E;stop-opacity:0.5341"/>
			<stop  offset="0.6933" style="stop-color:#B2B2AF;stop-opacity:0.3067"/>
			<stop  offset="0.942" style="stop-color:#F0EFED;stop-opacity:5.800000e-02"/>
			<stop  offset="1" style="stop-color:#FFFFFF;stop-opacity:0"/>
		</radialGradient>
		<ellipse class="st47" cx="249.3" cy="287" rx="76" ry="3.8"/>
		<g>
			
				<radialGradient id="SVGID_32_" cx="250.86" cy="379.669" r="64.2205" gradientTransform="matrix(1 0 0 -1 0 612)" gradientUnits="userSpaceOnUse">
				<stop  offset="0" style="stop-color:#FFFFFF"/>
				<stop  offset="0.3377" style="stop-color:#FAFAFA"/>
				<stop  offset="0.72" style="stop-color:#EDEDED"/>
				<stop  offset="1" style="stop-color:#DEDEDE"/>
			</radialGradient>
			<path class="st48" d="M210.9,176.7c-1.9,0-3.5,1.6-3.5,3.5v104.2c0,1.9,1.6,3.5,3.5,3.5h79.9c1.9,0,3.5-1.6,3.5-3.5v-84
				l-23.7-23.7H210.9z"/>
		</g>
		<path class="st2" d="M277.4,201.7l16.7-1.1l-23.6-23.7l-1.1,16.8C269.3,198.1,273,201.7,277.4,201.7z"/>
		<path class="st3" d="M277.9,201l16.2-0.5l-23.6-23.7l-0.5,16.3C270,197.5,273.5,201,277.9,201z"/>
		<g class="st4">
			<path class="st5" d="M212.2,177.3h-0.9c-1.9,0-3.4,1.5-3.4,3.4v29.9h0.9v-29.9C208.8,178.8,210.3,177.3,212.2,177.3z"/>
		</g>
		<g class="st14">
			<path class="st5" d="M270.9,193.1l0.4-15l-0.4-0.4l-0.4,15.3c0,3.4,2.4,6.3,5.6,7.1C273,199.2,270.9,196.4,270.9,193.1z"/>
		</g>
	</g>
	<g>
		
			<linearGradient id="SVGID_33_" gradientUnits="userSpaceOnUse" x1="250.861" y1="352.166" x2="250.861" y2="324.081" gradientTransform="matrix(1 0 0 -1 0 612)">
			<stop  offset="0" style="stop-color:#5CB5E2"/>
			<stop  offset="1" style="stop-color:#1689B9"/>
		</linearGradient>
		<path class="st49" d="M207.4,284.4c0,1.9,1.6,3.5,3.5,3.5h79.9c1.9,0,3.5-1.6,3.5-3.5v-24.6h-86.9L207.4,284.4L207.4,284.4z"/>
	</g>
	<g>
		<path class="st5" d="M244,279.8c-0.4,0.2-1.5,0.5-2.9,0.5c-3.9,0-5.9-2.4-5.9-5.6c0-3.8,2.7-5.9,6.1-5.9c1.3,0,2.3,0.3,2.8,0.5
			l-0.5,2c-0.5-0.2-1.2-0.4-2.1-0.4c-2,0-3.6,1.2-3.6,3.7c0,2.2,1.3,3.7,3.6,3.7c0.8,0,1.6-0.1,2.1-0.4L244,279.8z"/>
		<path class="st5" d="M245.7,277.5c0.7,0.4,1.7,0.7,2.8,0.7c1.2,0,1.8-0.5,1.8-1.2c0-0.7-0.5-1.1-1.9-1.6c-1.9-0.7-3.1-1.7-3.1-3.3
			c0-1.9,1.6-3.4,4.2-3.4c1.3,0,2.2,0.3,2.9,0.6l-0.6,2c-0.4-0.2-1.2-0.5-2.3-0.5c-1.1,0-1.6,0.5-1.6,1.1c0,0.7,0.6,1,2.1,1.6
			c2,0.7,2.9,1.8,2.9,3.3c0,1.9-1.4,3.5-4.5,3.5c-1.3,0-2.5-0.3-3.2-0.7L245.7,277.5z"/>
		<path class="st5" d="M254.7,277.5c0.7,0.4,1.7,0.7,2.8,0.7c1.2,0,1.8-0.5,1.8-1.2c0-0.7-0.5-1.1-1.9-1.6c-1.9-0.7-3.1-1.7-3.1-3.3
			c0-1.9,1.6-3.4,4.2-3.4c1.3,0,2.2,0.3,2.9,0.6l-0.6,2c-0.4-0.2-1.3-0.5-2.3-0.5c-1.1,0-1.6,0.5-1.6,1.1c0,0.7,0.6,1,2.1,1.6
			c2,0.7,2.9,1.8,2.9,3.3c0,1.9-1.4,3.5-4.5,3.5c-1.3,0-2.5-0.4-3.2-0.7L254.7,277.5z"/>
	</g>
	<g>
		<path class="st50" d="M224.2,224.8l18.1-8.4v4l-13.7,6v0.1l13.7,6v4l-18.1-8.4V224.8z"/>
		<path class="st51" d="M245.1,237.9l8.1-27.4h3.8l-8.1,27.4H245.1z"/>
		<path class="st50" d="M277.3,228.1l-18.1,8.3v-4l14-6v-0.1l-14-6v-4l18.1,8.3V228.1z"/>
	</g>
</g>
<g id="HTML">
	<g>
		
			<radialGradient id="SVGID_34_" cx="-898.222" cy="-11229.9033" r="70.8938" gradientTransform="matrix(1 0 0 -4.870000e-02 1307.5 -259.8553)" gradientUnits="userSpaceOnUse">
			<stop  offset="0" style="stop-color:#3C3E3E"/>
			<stop  offset="0.1053" style="stop-color:#454646;stop-opacity:0.8947"/>
			<stop  offset="0.2673" style="stop-color:#5B5C5A;stop-opacity:0.7327"/>
			<stop  offset="0.4659" style="stop-color:#7F807E;stop-opacity:0.5341"/>
			<stop  offset="0.6933" style="stop-color:#B2B2AF;stop-opacity:0.3067"/>
			<stop  offset="0.942" style="stop-color:#F0EFED;stop-opacity:5.800000e-02"/>
			<stop  offset="1" style="stop-color:#FFFFFF;stop-opacity:0"/>
		</radialGradient>
		<ellipse class="st52" cx="409.3" cy="287" rx="76" ry="3.8"/>
		<g>
			
				<radialGradient id="SVGID_35_" cx="410.86" cy="379.669" r="64.2205" gradientTransform="matrix(1 0 0 -1 0 612)" gradientUnits="userSpaceOnUse">
				<stop  offset="0" style="stop-color:#FFFFFF"/>
				<stop  offset="0.3377" style="stop-color:#FAFAFA"/>
				<stop  offset="0.72" style="stop-color:#EDEDED"/>
				<stop  offset="1" style="stop-color:#DEDEDE"/>
			</radialGradient>
			<path class="st53" d="M370.9,176.7c-1.9,0-3.5,1.6-3.5,3.5v104.2c0,1.9,1.6,3.5,3.5,3.5h79.9c1.9,0,3.5-1.6,3.5-3.5v-84
				l-23.7-23.7H370.9z"/>
		</g>
		<path class="st2" d="M437.4,201.7l16.7-1.1l-23.6-23.7l-1.1,16.8C429.3,198.1,433,201.7,437.4,201.7z"/>
		<path class="st3" d="M437.9,201l16.2-0.5l-23.6-23.7l-0.5,16.3C430,197.5,433.5,201,437.9,201z"/>
		<g class="st4">
			<path class="st5" d="M372.2,177.3h-0.9c-1.9,0-3.4,1.5-3.4,3.4v29.9h0.9v-29.9C368.8,178.8,370.3,177.3,372.2,177.3z"/>
		</g>
		<g class="st14">
			<path class="st5" d="M430.9,193.1l0.4-15l-0.4-0.4l-0.4,15.3c0,3.4,2.4,6.3,5.6,7.1C433,199.2,430.9,196.4,430.9,193.1z"/>
		</g>
	</g>
	<g>
		
			<linearGradient id="SVGID_36_" gradientUnits="userSpaceOnUse" x1="410.479" y1="351.609" x2="410.479" y2="323.524" gradientTransform="matrix(1 0 0 -1 0 612)">
			<stop  offset="0" style="stop-color:#438EC8"/>
			<stop  offset="1" style="stop-color:#005194"/>
		</linearGradient>
		<path class="st54" d="M367.1,285c0,1.9,1.6,3.5,3.5,3.5h79.9c1.9,0,3.5-1.6,3.5-3.5v-24.6h-86.9L367.1,285L367.1,285z"/>
	</g>
	<g>
		<path class="st5" d="M395,268.7l0,3.9h3.8l0-3.9h2.3v10.1l-2.3,0l0-4.2H395l0,4.2l-2.3,0v-10.1H395z"/>
		<path class="st5" d="M405,270.6h-2.7v-1.9h7.8v1.9h-2.8v8.2H405L405,270.6L405,270.6z"/>
		<path class="st5" d="M419.7,274.9c0-1.2-0.1-2.7-0.1-4.2l0,0c-0.3,1.3-0.8,2.7-1.1,3.9l-1.2,3.9l-1.8,0l-1.1-3.9
			c-0.3-1.2-0.7-2.6-0.9-4l0,0c0,1.4-0.1,2.9-0.2,4.2l-0.2,3.8l-2.1,0l0.6-10.1h3l1,3.4c0.3,1.2,0.6,2.4,0.9,3.6h0.1
			c0.3-1.2,0.6-2.5,1-3.6l1.1-3.4h3l0.5,10.1h-2.2L419.7,274.9z"/>
		<path class="st5" d="M423.9,268.7h2.3v8.2l4,0v1.9h-6.3V268.7z"/>
	</g>
	<g>
		<path class="st55" d="M430.9,225.4l-3.4-5.9l-3.4,5.9h2.3c0,7.4-5,13.6-11.7,15.5c2.5-2.6,5.5-7.3,5.5-15.7
			c0-14.4-8.8-18.1-9.1-18.3c-0.1,0-0.2-0.1-0.3-0.1l-0.3,0c-0.1,0-0.1,0-0.2,0c-10.2,0-18.4,8.3-18.4,18.5
			c0,10.2,8.3,18.5,18.4,18.5c10.1,0,18.4-8.3,18.4-18.5L430.9,225.4L430.9,225.4z M405.7,209.9c-1.5,1.6-3.1,4-4.1,7.4h-5.1
			C398.5,213.7,401.8,211.1,405.7,209.9z M395.8,218.4c0.1,0,0.1,0,0.2,0h5.2c-0.5,1.9-0.7,4.1-0.8,6.6h-6.2
			C394.3,222.6,394.9,220.4,395.8,218.4z M396.2,232.9c-1.1-2-1.7-4.3-1.9-6.7h6.2c0.1,2.6,0.4,4.8,1,6.7h-5.1
			C396.3,232.8,396.2,232.9,396.2,232.9z M396.8,234h5c1.1,3.2,2.7,5.4,4.1,6.9C402.2,239.8,398.9,237.3,396.8,234z M409.2,240.6
			c-1.4-1-3.5-2.9-4.9-6.6h4.9V240.6L409.2,240.6z M409.2,232.8h-5.3c-0.6-1.8-1-4-1.1-6.7h6.4V232.8L409.2,232.8z M409.2,225h-6.4
			c0-2.6,0.3-4.8,0.8-6.6h5.5L409.2,225L409.2,225z M409.2,217.2H404c1.4-4.2,3.7-6.4,5.2-7.4V217.2L409.2,217.2z M416.8,232.8h-5.2
			v-6.7h6.3C417.8,228.8,417.4,231,416.8,232.8z M411.6,209.9c1.5,1,3.7,3.2,5.1,7.3h-5.1V209.9z M411.6,218.4h5.5
			c0.5,1.8,0.8,4,0.8,6.6h-6.3L411.6,218.4L411.6,218.4z M411.6,240.5V234h4.8C415,237.6,412.9,239.6,411.6,240.5z"/>
		<g>
			<path class="st56" d="M376.5,223.8l12.3-5.7v2.7l-9.3,4.1v0.1l9.3,4.1v2.7l-12.3-5.7V223.8z"/>
			<path class="st56" d="M445.4,225.6l-12.3,5.6v-2.7l9.5-4.1v-0.1l-9.5-4.1v-2.7l12.3,5.6V225.6z"/>
		</g>
	</g>
</g>
<g id="RAR">
	<g>
		
			<radialGradient id="SVGID_37_" cx="-738.222" cy="-11229.9033" r="70.8938" gradientTransform="matrix(1 0 0 -4.870000e-02 1307.5 -259.8553)" gradientUnits="userSpaceOnUse">
			<stop  offset="0" style="stop-color:#3C3E3E"/>
			<stop  offset="0.1053" style="stop-color:#454646;stop-opacity:0.8947"/>
			<stop  offset="0.2673" style="stop-color:#5B5C5A;stop-opacity:0.7327"/>
			<stop  offset="0.4659" style="stop-color:#7F807E;stop-opacity:0.5341"/>
			<stop  offset="0.6933" style="stop-color:#B2B2AF;stop-opacity:0.3067"/>
			<stop  offset="0.942" style="stop-color:#F0EFED;stop-opacity:5.800000e-02"/>
			<stop  offset="1" style="stop-color:#FFFFFF;stop-opacity:0"/>
		</radialGradient>
		<ellipse class="st57" cx="569.3" cy="287" rx="76" ry="3.8"/>
		<g>
			
				<radialGradient id="SVGID_38_" cx="570.86" cy="379.669" r="64.2205" gradientTransform="matrix(1 0 0 -1 0 612)" gradientUnits="userSpaceOnUse">
				<stop  offset="0" style="stop-color:#FFFFFF"/>
				<stop  offset="0.3377" style="stop-color:#FAFAFA"/>
				<stop  offset="0.72" style="stop-color:#EDEDED"/>
				<stop  offset="1" style="stop-color:#DEDEDE"/>
			</radialGradient>
			<path class="st58" d="M530.9,176.7c-1.9,0-3.5,1.6-3.5,3.5v104.2c0,1.9,1.6,3.5,3.5,3.5h79.9c1.9,0,3.5-1.6,3.5-3.5v-84
				l-23.7-23.7H530.9z"/>
		</g>
		<path class="st2" d="M597.4,201.7l16.7-1.1l-23.6-23.7l-1.1,16.8C589.3,198.1,593,201.7,597.4,201.7z"/>
		<path class="st3" d="M597.9,201l16.2-0.5l-23.6-23.7l-0.5,16.3C590,197.5,593.5,201,597.9,201z"/>
		<g class="st4">
			<path class="st5" d="M532.2,177.3h-0.9c-1.9,0-3.4,1.5-3.4,3.4v29.9h0.9v-29.9C528.8,178.8,530.3,177.3,532.2,177.3z"/>
		</g>
		<g class="st14">
			<path class="st5" d="M590.9,193.1l0.4-15l-0.4-0.4l-0.4,15.3c0,3.4,2.4,6.3,5.6,7.1C593,199.2,590.9,196.4,590.9,193.1z"/>
		</g>
	</g>
	<g>
		
			<linearGradient id="SVGID_39_" gradientUnits="userSpaceOnUse" x1="570.861" y1="351.609" x2="570.861" y2="323.524" gradientTransform="matrix(1 0 0 -1 0 612)">
			<stop  offset="0" style="stop-color:#B6639F"/>
			<stop  offset="1" style="stop-color:#754491"/>
		</linearGradient>
		<path class="st59" d="M527.4,285c0,1.9,1.6,3.5,3.5,3.5h79.9c1.9,0,3.5-1.6,3.5-3.5v-24.6h-86.9L527.4,285L527.4,285z"/>
	</g>
	<g>
		
			<linearGradient id="SVGID_40_" gradientUnits="userSpaceOnUse" x1="570.651" y1="378.964" x2="570.651" y2="367.975" gradientTransform="matrix(1 0 0 -1 0 612)">
			<stop  offset="0" style="stop-color:#B6639F"/>
			<stop  offset="1" style="stop-color:#754491"/>
		</linearGradient>
		<path class="st60" d="M593.6,241.9c0,1.2-0.9,2.1-2,2.1h-42c-1.1,0-2-1-2-2.1v-6.7c0-1.2,0.9-2.1,2-2.1h42c1.1,0,2,1,2,2.1V241.9z
			"/>
		
			<linearGradient id="SVGID_41_" gradientUnits="userSpaceOnUse" x1="570.651" y1="390.423" x2="570.651" y2="379.434" gradientTransform="matrix(1 0 0 -1 0 612)">
			<stop  offset="0" style="stop-color:#B6639F"/>
			<stop  offset="1" style="stop-color:#754491"/>
		</linearGradient>
		<path class="st61" d="M593.6,230.4c0,1.2-0.9,2.1-2,2.1h-42c-1.1,0-2-1-2-2.1v-6.7c0-1.2,0.9-2.1,2-2.1h42c1.1,0,2,1,2,2.1V230.4z
			"/>
		
			<linearGradient id="SVGID_42_" gradientUnits="userSpaceOnUse" x1="570.651" y1="401.882" x2="570.651" y2="390.893" gradientTransform="matrix(1 0 0 -1 0 612)">
			<stop  offset="0" style="stop-color:#B6639F"/>
			<stop  offset="1" style="stop-color:#754491"/>
		</linearGradient>
		<path class="st62" d="M593.6,219c0,1.2-0.9,2.1-2,2.1h-42c-1.1,0-2-1-2-2.1v-6.7c0-1.2,0.9-2.1,2-2.1h42c1.1,0,2,1,2,2.1V219z"/>
		<g>
			<rect x="550.1" y="223.3" class="st63" width="1.6" height="6.8"/>
			<rect x="550.1" y="212.1" class="st63" width="1.6" height="6.8"/>
			<rect x="550.1" y="235.2" class="st63" width="1.6" height="6.8"/>
			<rect x="553" y="223.3" class="st63" width="1.6" height="6.8"/>
			<rect x="553" y="235.2" class="st63" width="1.6" height="6.8"/>
			<rect x="553" y="212.1" class="st63" width="1.6" height="6.8"/>
		</g>
		
			<linearGradient id="SVGID_43_" gradientUnits="userSpaceOnUse" x1="569.977" y1="368.0806" x2="569.977" y2="403.9564" gradientTransform="matrix(1 0 0 -1 0 612)">
			<stop  offset="0" style="stop-color:#9B471E"/>
			<stop  offset="0.3676" style="stop-color:#9B471E"/>
			<stop  offset="1" style="stop-color:#A2736B"/>
		</linearGradient>
		<rect x="566.2" y="210.1" class="st64" width="7.7" height="33.9"/>
		<path class="st5" d="M574.5,221.5h-9c-0.6,0-1.1,0.5-1.1,1.1v9c0,0.6,0.5,1.1,1.1,1.1h9c0.6,0,1.1-0.5,1.1-1.1v-9
			C575.6,222,575.1,221.5,574.5,221.5z M574.7,231.7c0,0.1-0.1,0.2-0.2,0.2h-9c-0.1,0-0.2-0.1-0.2-0.2v-9c0-0.1,0.1-0.2,0.2-0.2h3.9
			v6.4h0.9v-6.4h4.2c0.1,0,0.2,0.1,0.2,0.2L574.7,231.7L574.7,231.7z"/>
		<g>
			<circle class="st6" cx="569.9" cy="230.4" r="0.9"/>
			<path class="st5" d="M569.9,231.4c-0.6,0-1-0.4-1-1c0-0.6,0.4-1,1-1c0.5,0,1,0.4,1,1C570.9,231,570.5,231.4,569.9,231.4z
				 M569.9,229.7c-0.4,0-0.7,0.3-0.7,0.7s0.3,0.7,0.7,0.7c0.4,0,0.7-0.3,0.7-0.7S570.3,229.7,569.9,229.7z"/>
		</g>
	</g>
	<g>
		<path class="st5" d="M556.4,268.8c0.8-0.1,2-0.2,3.2-0.2c1.6,0,2.7,0.2,3.5,0.8c0.6,0.5,1,1.3,1,2.3c0,1.4-1,2.3-1.9,2.7v0
			c0.8,0.3,1.2,1,1.4,2c0.3,1.2,0.7,2.6,0.9,3H562c-0.2-0.3-0.4-1.2-0.8-2.5c-0.3-1.3-0.8-1.7-1.7-1.7h-0.7v4.2h-2.4V268.8z
			 M558.8,273.4h1c1.2,0,1.9-0.6,1.9-1.6c0-1-0.7-1.5-1.8-1.5c-0.6,0-0.9,0-1.1,0.1L558.8,273.4L558.8,273.4z"/>
		<path class="st5" d="M568.5,276.7l-0.8,2.8h-2.5l3.3-10.8h3.2l3.3,10.8h-2.6l-0.8-2.8H568.5z M571.3,274.8l-0.7-2.3
			c-0.2-0.6-0.4-1.4-0.5-2.1h0c-0.2,0.6-0.3,1.5-0.5,2.1l-0.6,2.3H571.3z"/>
		<path class="st5" d="M576.5,268.8c0.8-0.1,2-0.2,3.2-0.2c1.6,0,2.7,0.2,3.5,0.8c0.6,0.5,1,1.3,1,2.3c0,1.4-1,2.3-1.9,2.7v0
			c0.8,0.3,1.2,1,1.4,2c0.3,1.2,0.7,2.6,0.9,3h-2.5c-0.2-0.3-0.4-1.2-0.8-2.5c-0.3-1.3-0.8-1.7-1.7-1.7h-0.7v4.2h-2.4V268.8z
			 M578.9,273.4h1c1.2,0,1.9-0.6,1.9-1.6c0-1-0.7-1.5-1.8-1.5c-0.6,0-0.9,0-1.1,0.1L578.9,273.4L578.9,273.4z"/>
	</g>
</g>
<g id="EPS">
	<g>
		
			<radialGradient id="SVGID_44_" cx="570.86" cy="229.6685" r="64.2205" gradientTransform="matrix(1 0 0 -1 0 612)" gradientUnits="userSpaceOnUse">
			<stop  offset="0" style="stop-color:#FFFFFF"/>
			<stop  offset="0.3377" style="stop-color:#FAFAFA"/>
			<stop  offset="0.72" style="stop-color:#EDEDED"/>
			<stop  offset="1" style="stop-color:#DEDEDE"/>
		</radialGradient>
		<path class="st65" d="M530.9,326.7c-1.9,0-3.5,1.6-3.5,3.5v104.2c0,1.9,1.6,3.5,3.5,3.5h79.9c1.9,0,3.5-1.6,3.5-3.5v-84
			l-23.7-23.7L530.9,326.7L530.9,326.7z"/>
		<path class="st2" d="M597.4,351.7l16.7-1.1l-23.6-23.7l-1.1,16.8C589.3,348.1,593,351.7,597.4,351.7z"/>
		<path class="st3" d="M597.9,351l16.2-0.5l-23.6-23.7l-0.5,16.3C590,347.5,593.5,351,597.9,351z"/>
		<path class="st66" d="M532,327.5h-0.9c-1.9,0-3.4,1.5-3.4,3.4v29.9h0.9v-29.9C528.6,329,530.1,327.5,532,327.5z"/>
		<path class="st67" d="M590.9,343.1l0.4-15l-0.4-0.4l-0.4,15.3c0,3.4,2.4,6.3,5.6,7.1C593,349.2,590.9,346.4,590.9,343.1z"/>
		
			<radialGradient id="SVGID_45_" cx="-738.222" cy="-14309.9854" r="70.8883" gradientTransform="matrix(1 0 0 -4.870000e-02 1307.5 -259.8553)" gradientUnits="userSpaceOnUse">
			<stop  offset="0" style="stop-color:#3C3E3E"/>
			<stop  offset="0.1053" style="stop-color:#454646;stop-opacity:0.8947"/>
			<stop  offset="0.2673" style="stop-color:#5B5C5A;stop-opacity:0.7327"/>
			<stop  offset="0.4659" style="stop-color:#7F807E;stop-opacity:0.5341"/>
			<stop  offset="0.6933" style="stop-color:#B2B2AF;stop-opacity:0.3067"/>
			<stop  offset="0.942" style="stop-color:#F0EFED;stop-opacity:5.800000e-02"/>
			<stop  offset="1" style="stop-color:#FFFFFF;stop-opacity:0"/>
		</radialGradient>
		<ellipse class="st68" cx="569.3" cy="437" rx="76" ry="3.8"/>
	</g>
	<g>
		
			<linearGradient id="SVGID_46_" gradientUnits="userSpaceOnUse" x1="570.861" y1="202.226" x2="570.861" y2="174.142" gradientTransform="matrix(1 0 0 -1 0 612)">
			<stop  offset="0" style="stop-color:#F08B55"/>
			<stop  offset="0.6662" style="stop-color:#E57143"/>
			<stop  offset="1" style="stop-color:#E0623B"/>
		</linearGradient>
		<path class="st69" d="M527.4,434.4c0,1.9,1.6,3.5,3.5,3.5h79.9c1.9,0,3.5-1.6,3.5-3.5v-24.6h-86.9L527.4,434.4L527.4,434.4z"/>
	</g>
	<g>
		<path class="st5" d="M564.6,425.2h-4.1v2.7h4.6l0,2.1l-7.1,0v-11.2h6.9v2.1h-4.4v2.3h4.1L564.6,425.2z"/>
		<path class="st5" d="M566.8,418.8c0.8-0.1,1.9-0.2,3.4-0.2c1.6,0,2.7,0.3,3.4,0.9c0.7,0.6,1.2,1.5,1.2,2.6c0,1.1-0.3,2-1,2.7
			c-0.9,0.8-2.1,1.2-3.6,1.2c-0.3,0-0.6,0-0.9-0.1l0,4h-2.5V418.8z M569.3,423.9c0.2,0,0.5,0.1,0.9,0.1c1.3,0,2.2-0.7,2.2-1.8
			c0-1-0.7-1.6-2-1.6c-0.5,0-0.8,0-1,0.1L569.3,423.9z"/>
		<path class="st5" d="M576.6,427.3c0.7,0.4,1.7,0.7,2.8,0.7c1.2,0,1.8-0.5,1.8-1.2c0-0.7-0.5-1.1-1.9-1.6c-1.9-0.7-3.1-1.7-3.1-3.3
			c0-1.9,1.6-3.4,4.2-3.4c1.3,0,2.2,0.3,2.9,0.6l-0.6,2c-0.4-0.2-1.2-0.5-2.3-0.5c-1.1,0-1.6,0.5-1.6,1.1c0,0.7,0.6,1,2.1,1.6
			c2,0.7,2.9,1.8,2.9,3.3c0,1.9-1.4,3.5-4.5,3.5c-1.3,0-2.5-0.3-3.2-0.7L576.6,427.3z"/>
	</g>
	<g>
		
			<linearGradient id="SVGID_47_" gradientUnits="userSpaceOnUse" x1="130.0703" y1="1176.5056" x2="99.004" y2="1207.572" gradientTransform="matrix(0.7071 0.7071 0.7071 -0.7071 -353.9018 1133.8623)">
			<stop  offset="0" style="stop-color:#F08B55"/>
			<stop  offset="0.6662" style="stop-color:#E57143"/>
			<stop  offset="1" style="stop-color:#E0623B"/>
		</linearGradient>
		<circle class="st70" cx="570" cy="372" r="22"/>
		
			<rect x="584.2" y="355.1" transform="matrix(0.7071 -0.7071 0.7071 0.7071 -80.5357 518.4106)" class="st71" width="2.5" height="2.5"/>
		
			<rect x="584.2" y="386.2" transform="matrix(0.7073 -0.7069 0.7069 0.7073 -102.5457 527.3114)" class="st71" width="2.5" height="2.5"/>
		
			<rect x="553.2" y="355.1" transform="matrix(0.7069 -0.7073 0.7073 0.7069 -89.5915 496.6306)" class="st71" width="2.5" height="2.5"/>
		<line class="st72" x1="574.1" y1="345" x2="596.8" y2="367.7"/>
		<line class="st72" x1="543.1" y1="367.8" x2="565.8" y2="345.1"/>
		<line class="st72" x1="574.2" y1="398.8" x2="596.8" y2="376.2"/>
	</g>
</g>
<g id="PSD">
	<g>
		
			<radialGradient id="SVGID_48_" cx="-898.222" cy="-14309.9854" r="70.8883" gradientTransform="matrix(1 0 0 -4.870000e-02 1307.5 -259.8553)" gradientUnits="userSpaceOnUse">
			<stop  offset="0" style="stop-color:#3C3E3E"/>
			<stop  offset="0.1053" style="stop-color:#454646;stop-opacity:0.8947"/>
			<stop  offset="0.2673" style="stop-color:#5B5C5A;stop-opacity:0.7327"/>
			<stop  offset="0.4659" style="stop-color:#7F807E;stop-opacity:0.5341"/>
			<stop  offset="0.6933" style="stop-color:#B2B2AF;stop-opacity:0.3067"/>
			<stop  offset="0.942" style="stop-color:#F0EFED;stop-opacity:5.800000e-02"/>
			<stop  offset="1" style="stop-color:#FFFFFF;stop-opacity:0"/>
		</radialGradient>
		<ellipse class="st73" cx="409.3" cy="437" rx="76" ry="3.8"/>
		<g>
			
				<radialGradient id="SVGID_49_" cx="410.86" cy="229.6685" r="64.2205" gradientTransform="matrix(1 0 0 -1 0 612)" gradientUnits="userSpaceOnUse">
				<stop  offset="0" style="stop-color:#FFFFFF"/>
				<stop  offset="0.3377" style="stop-color:#FAFAFA"/>
				<stop  offset="0.72" style="stop-color:#EDEDED"/>
				<stop  offset="1" style="stop-color:#DEDEDE"/>
			</radialGradient>
			<path class="st74" d="M370.9,326.7c-1.9,0-3.5,1.6-3.5,3.5v104.2c0,1.9,1.6,3.5,3.5,3.5h79.9c1.9,0,3.5-1.6,3.5-3.5v-84
				l-23.7-23.7L370.9,326.7L370.9,326.7z"/>
		</g>
		<path class="st2" d="M437.4,351.7l16.7-1.1l-23.6-23.7l-1.1,16.8C429.3,348.1,433,351.7,437.4,351.7z"/>
		<path class="st3" d="M437.9,351l16.2-0.5l-23.6-23.7l-0.5,16.3C430,347.5,433.5,351,437.9,351z"/>
		<g class="st4">
			<path class="st5" d="M372.2,327.3h-0.9c-1.9,0-3.4,1.5-3.4,3.4v29.9h0.9v-29.9C368.8,328.8,370.3,327.3,372.2,327.3z"/>
		</g>
		<g class="st14">
			<path class="st5" d="M430.9,343.1l0.4-15l-0.4-0.4l-0.4,15.3c0,3.4,2.4,6.3,5.6,7.1C433,349.2,430.9,346.4,430.9,343.1z"/>
		</g>
	</g>
	<g>
		
			<linearGradient id="SVGID_50_" gradientUnits="userSpaceOnUse" x1="410.479" y1="202.226" x2="410.479" y2="174.142" gradientTransform="matrix(1 0 0 -1 0 612)">
			<stop  offset="0" style="stop-color:#438EC8"/>
			<stop  offset="1" style="stop-color:#005194"/>
		</linearGradient>
		<path class="st75" d="M367.1,434.4c0,1.9,1.6,3.5,3.5,3.5h79.9c1.9,0,3.5-1.6,3.5-3.5v-24.6h-86.9L367.1,434.4L367.1,434.4z"/>
	</g>
	<g>
		<path class="st5" d="M397.3,418.8c0.8-0.1,1.9-0.2,3.4-0.2c1.6,0,2.7,0.3,3.4,0.9c0.7,0.6,1.2,1.5,1.2,2.6s-0.4,2-1,2.7
			c-0.9,0.8-2.1,1.2-3.6,1.2c-0.3,0-0.6,0-0.9-0.1l0,4h-2.5L397.3,418.8L397.3,418.8z M399.8,423.9c0.2,0.1,0.5,0.1,0.9,0.1
			c1.3,0,2.2-0.7,2.2-1.8c0-1-0.7-1.6-2-1.6c-0.5,0-0.8,0-1,0.1L399.8,423.9z"/>
		<path class="st5" d="M407,427.3c0.7,0.4,1.7,0.7,2.8,0.7c1.2,0,1.8-0.5,1.8-1.2c0-0.7-0.5-1.1-1.9-1.6c-1.9-0.7-3.1-1.7-3.1-3.3
			c0-1.9,1.6-3.4,4.2-3.4c1.3,0,2.2,0.3,2.9,0.6l-0.6,2c-0.4-0.2-1.3-0.5-2.3-0.5c-1.1,0-1.6,0.5-1.6,1.1c0,0.7,0.6,1,2.1,1.6
			c2,0.7,2.9,1.8,2.9,3.3c0,1.9-1.4,3.5-4.5,3.5c-1.3,0-2.5-0.4-3.2-0.7L407,427.3z"/>
		<path class="st5" d="M415.9,418.8c0.9-0.1,2.1-0.3,3.4-0.3c2.1,0,3.5,0.4,4.6,1.2c1.2,0.9,1.9,2.2,1.9,4.2c0,2.1-0.8,3.6-1.8,4.5
			c-1.2,1-3,1.4-5.2,1.4c-1.3,0-2.3-0.1-2.9-0.2L415.9,418.8L415.9,418.8z M418.5,428c0.2,0.1,0.6,0,0.9,0.1c2.3,0,3.8-1.2,3.8-3.9
			c0-2.3-1.4-3.6-3.6-3.6c-0.5,0-0.9,0.1-1.1,0.1L418.5,428L418.5,428z"/>
	</g>
	<g>
		<g>
			
				<linearGradient id="SVGID_51_" gradientUnits="userSpaceOnUse" x1="141.9103" y1="1176.7876" x2="145.9317" y2="1152.8844" gradientTransform="matrix(0.9861 -0.1659 0.1659 0.9861 63.6532 -759.5163)">
				<stop  offset="0" style="stop-color:#438EC8"/>
				<stop  offset="1" style="stop-color:#005194"/>
			</linearGradient>
			<path class="st76" d="M381.8,358.2l3,17.7c2.6-0.4,5.8-0.4,9.3,0.1c2.2,0.3,4.3,0.8,6.2,1.3c2-0.8,4.5-1.5,7.2-1.8
				c3.1-0.4,6.1-0.3,8.4,0.1l-3.8-22.6L381.8,358.2L381.8,358.2z"/>
			<path class="st77" d="M407.5,375.6c-0.5,0.1-1,0.1-1.5,0.2c-2.2,0.4-4.2,0.9-5.8,1.6c-1.8-0.5-3.9-1-6.1-1.3
				c-3.5-0.5-6.7-0.5-9.3-0.1l1.4,8.5l9.4-1.6c0,0,0,0,0,0l0.5-0.1l20.3-3.4l-0.6-3.7C413.5,375.3,410.6,375.2,407.5,375.6z"/>
		</g>
		<g>
			<g>
				<path class="st5" d="M409.4,360c1.7-0.2,3.2,0.5,3.5,1.6c0.4,1.2-0.7,2.5-2.4,2.9c-1.5,0.4-9,1.6-10.5,1.8
					c-1.6,0.1-2.9-0.5-3.2-1.5c-0.5-1.4,0.6-2.5,2.4-3.1c-0.8-1.2,1.3-2.5,2.8-1.9c0.6-0.9,1.4-1.6,2.9-2
					C407.3,357.3,409.1,358.3,409.4,360z"/>
			</g>
		</g>
		<g>
			<g>
				<path class="st5" d="M389.3,370.2c0.6-0.1,1.1,0.2,1.2,0.7c0.1,0.5-0.2,1-0.8,1.1c-0.5,0.1-3,0.5-3.5,0.6c-0.5,0-1-0.2-1.1-0.6
					c-0.2-0.6,0.2-1,0.8-1.2c-0.3-0.5,0.4-1,0.9-0.7c0.2-0.3,0.5-0.6,1-0.8C388.6,369.1,389.2,369.5,389.3,370.2z"/>
			</g>
		</g>
	</g>
	<g>
		<g>
			<path class="st5" d="M433.5,365.7c1.7,0.3,3,1.3,3,2.5c0,1.3-1.4,2.2-3.1,2.2c-1.6,0-9.1-0.8-10.5-1.1c-1.6-0.3-2.7-1.3-2.7-2.3
				c-0.1-1.5,1.3-2.2,3.1-2.3c-0.4-1.4,1.9-2.1,3.2-1.1c0.8-0.7,1.8-1.2,3.3-1.1C432.1,362.5,433.6,364,433.5,365.7z"/>
		</g>
	</g>
	<g>
		<path class="st78" d="M415.9,377.7c1.1,0.5,2.1,1.1,3.1,1.6l0,0C418,378.8,417,378.2,415.9,377.7z"/>
		<path class="st77" d="M415.9,377.7c-0.5-0.2-1-0.5-1.5-0.7C414.9,377.3,415.4,377.5,415.9,377.7z"/>
		<path class="st79" d="M425.7,379.9c-0.2,0-0.3,0-0.5,0C425.3,379.9,425.5,379.9,425.7,379.9z"/>
		<path class="st79" d="M419,379.4c0.3,0.2,0.6,0.4,0.9,0.6h0C419.6,379.7,419.3,379.5,419,379.4L419,379.4z"/>
		
			<linearGradient id="SVGID_52_" gradientUnits="userSpaceOnUse" x1="236.998" y1="910.8243" x2="245.3118" y2="892.9995" gradientTransform="matrix(0.9946 0.1034 -0.1034 0.9946 274.921 -545.4)">
			<stop  offset="0" style="stop-color:#FFFFFF"/>
			<stop  offset="1.100000e-03" style="stop-color:#ACDBEC"/>
			<stop  offset="1" style="stop-color:#0597B3"/>
		</linearGradient>
		<path class="st80" d="M419.9,379.9c1.6-0.2,3.3-0.2,5.2,0c0.2,0,0.3,0,0.5,0c0.1,0,0.2,0,0.3,0c0.4,0,0.7,0.1,1.1,0.1
			c0.1,0,0.3,0,0.4,0c3.1,0.5,5.9,1.3,8,2.4l2.4-22.8l-22.3-2.3l3.5,21.9C419.3,379.5,419.6,379.7,419.9,379.9z"/>
		
			<linearGradient id="SVGID_53_" gradientUnits="userSpaceOnUse" x1="426.6604" y1="229.494" x2="426.6604" y2="254.569" gradientTransform="matrix(1 0 0 -1 0 612)">
			<stop  offset="0" style="stop-color:#438EC8"/>
			<stop  offset="1" style="stop-color:#005194"/>
		</linearGradient>
		<path class="st81" d="M419.9,379.9c1.6-0.2,3.3-0.2,5.2,0c0.2,0,0.3,0,0.5,0c0.1,0,0.2,0,0.3,0c0.4,0,0.7,0.1,1.1,0.1
			c0.1,0,0.3,0,0.4,0c3.1,0.5,5.9,1.3,8,2.4l2.4-22.8l-22.3-2.3l3.5,21.9C419.3,379.5,419.6,379.7,419.9,379.9z"/>
		<path class="st77" d="M435.5,382.5c-2.1-1-4.9-1.9-8-2.4c-0.1,0-0.3,0-0.4,0c-0.5-0.1-0.9-0.1-1.4-0.2c-0.2,0-0.3,0-0.5,0
			c-1.9-0.1-3.6-0.1-5.2,0.1c0,0-0.1,0-0.1-0.1h0c-0.3-0.2-0.6-0.4-0.9-0.6l0.8,5.3l15.2,1.6L435.5,382.5z"/>
		<path class="st79" d="M435.5,382.5c-2.1-1-4.9-1.9-8-2.4c-0.1,0-0.3,0-0.4,0c-0.5-0.1-0.9-0.1-1.4-0.2c-0.2,0-0.3,0-0.5,0
			c-1.9-0.1-3.6-0.1-5.2,0.1c0,0-0.1,0-0.1-0.1h0c-0.3-0.2-0.6-0.4-0.9-0.6l0.8,5.3l15.2,1.6L435.5,382.5z"/>
		<path class="st77" d="M419.9,379.9C420,379.9,420,380,419.9,379.9c1.6-0.1,3.4-0.2,5.2,0C423.3,379.7,421.5,379.8,419.9,379.9z"/>
		<path class="st79" d="M419.9,379.9C420,379.9,420,380,419.9,379.9c1.6-0.1,3.4-0.2,5.2,0C423.3,379.7,421.5,379.8,419.9,379.9z"/>
		<path class="st77" d="M425.7,379.9c0.5,0,0.9,0.1,1.4,0.2c-0.4,0-0.7-0.1-1.1-0.1C425.9,380,425.8,380,425.7,379.9z"/>
		<path class="st79" d="M425.7,379.9c0.5,0,0.9,0.1,1.4,0.2c-0.4,0-0.7-0.1-1.1-0.1C425.9,380,425.8,380,425.7,379.9z"/>
	</g>
	<path class="st82" d="M412.9,350.6l-32.2,6.4l6.3,39.4l32.2-6.4L412.9,350.6z M383.5,359l27.3-5.4l3.9,24.7l-27.3,5.4L383.5,359z
		 M415.2,355.2l0.4,2.7l21.7,2.6l-2.4,25l-15.2-1.8l1.2,7.5l-15.8,3.1l31.1,3.7l3.8-39.8L415.2,355.2z"/>
	<g>
		<g>
			<path class="st5" d="M431.6,365.7c1.6,0.2,2.8,1.2,2.8,2.3c0,1.2-1.3,2-3,2c-1.5,0-8.6-0.8-10-1c-1.5-0.3-2.5-1.2-2.6-2.1
				c-0.1-1.4,1.2-2,2.9-2.1c-0.4-1.3,1.8-1.9,3-1c0.7-0.6,1.7-1.1,3.2-1C430.3,362.8,431.8,364.2,431.6,365.7z"/>
		</g>
	</g>
</g>
<g id="PPT">
	<g>
		
			<radialGradient id="SVGID_54_" cx="-1218.222" cy="-14309.9854" r="70.8883" gradientTransform="matrix(1 0 0 -4.870000e-02 1307.5 -259.8553)" gradientUnits="userSpaceOnUse">
			<stop  offset="0" style="stop-color:#3C3E3E"/>
			<stop  offset="0.1053" style="stop-color:#454646;stop-opacity:0.8947"/>
			<stop  offset="0.2673" style="stop-color:#5B5C5A;stop-opacity:0.7327"/>
			<stop  offset="0.4659" style="stop-color:#7F807E;stop-opacity:0.5341"/>
			<stop  offset="0.6933" style="stop-color:#B2B2AF;stop-opacity:0.3067"/>
			<stop  offset="0.942" style="stop-color:#F0EFED;stop-opacity:5.800000e-02"/>
			<stop  offset="1" style="stop-color:#FFFFFF;stop-opacity:0"/>
		</radialGradient>
		<ellipse class="st83" cx="89.3" cy="437" rx="76" ry="3.8"/>
		<g>
			
				<radialGradient id="SVGID_55_" cx="90.86" cy="229.6685" r="64.2205" gradientTransform="matrix(1 0 0 -1 0 612)" gradientUnits="userSpaceOnUse">
				<stop  offset="0" style="stop-color:#FFFFFF"/>
				<stop  offset="0.3377" style="stop-color:#FAFAFA"/>
				<stop  offset="0.72" style="stop-color:#EDEDED"/>
				<stop  offset="1" style="stop-color:#DEDEDE"/>
			</radialGradient>
			<path class="st84" d="M50.9,326.7c-1.9,0-3.5,1.6-3.5,3.5v104.2c0,1.9,1.6,3.5,3.5,3.5h79.9c1.9,0,3.5-1.6,3.5-3.5v-84
				l-23.7-23.7L50.9,326.7L50.9,326.7z"/>
		</g>
		<path class="st2" d="M117.4,351.7l16.7-1.1l-23.6-23.7l-1.1,16.8C109.3,348.1,113,351.7,117.4,351.7z"/>
		<path class="st3" d="M117.9,351l16.2-0.5l-23.6-23.7l-0.5,16.3C110,347.5,113.5,351,117.9,351z"/>
		<g class="st4">
			<path class="st5" d="M52.2,327.3h-0.9c-1.9,0-3.4,1.5-3.4,3.4v29.9h0.9v-29.9C48.8,328.8,50.3,327.3,52.2,327.3z"/>
		</g>
		<g class="st14">
			<path class="st5" d="M110.9,343.1l0.4-15l-0.4-0.4l-0.4,15.3c0,3.4,2.4,6.3,5.6,7.1C113,349.2,110.9,346.4,110.9,343.1z"/>
		</g>
	</g>
	<g>
		
			<linearGradient id="SVGID_56_" gradientUnits="userSpaceOnUse" x1="90.861" y1="201.784" x2="90.861" y2="173.699" gradientTransform="matrix(1 0 0 -1 0 612)">
			<stop  offset="0" style="stop-color:#F08B55"/>
			<stop  offset="0.6662" style="stop-color:#E57143"/>
			<stop  offset="1" style="stop-color:#E0623B"/>
		</linearGradient>
		<path class="st85" d="M47.4,434.8c0,1.9,1.6,3.5,3.5,3.5h79.9c1.9,0,3.5-1.6,3.5-3.5v-24.6H47.4V434.8z"/>
	</g>
	<g>
		<path class="st5" d="M76.7,418.8c0.8-0.1,1.9-0.2,3.4-0.2c1.6,0,2.7,0.3,3.4,0.9c0.7,0.6,1.2,1.5,1.2,2.6c0,1.1-0.4,2-1,2.7
			c-0.9,0.8-2.1,1.2-3.6,1.2c-0.3,0-0.6,0-0.9-0.1v4h-2.5C76.7,429.9,76.7,418.8,76.7,418.8z M79.2,423.9c0.2,0.1,0.5,0.1,0.8,0.1
			c1.3,0,2.2-0.7,2.2-1.8c0-1-0.7-1.6-2-1.6c-0.5,0-0.8,0-1,0.1L79.2,423.9L79.2,423.9z"/>
		<path class="st5" d="M86.3,418.8c0.8-0.1,1.9-0.2,3.4-0.2c1.6,0,2.7,0.3,3.4,0.9c0.7,0.6,1.2,1.5,1.2,2.6c0,1.1-0.4,2-1,2.7
			c-0.9,0.8-2.1,1.2-3.6,1.2c-0.3,0-0.6,0-0.9-0.1v4h-2.5V418.8z M88.9,423.9c0.2,0.1,0.5,0.1,0.8,0.1c1.3,0,2.2-0.7,2.2-1.8
			c0-1-0.7-1.6-2-1.6c-0.5,0-0.8,0-1,0.1L88.9,423.9L88.9,423.9z"/>
		<path class="st5" d="M98.2,420.8h-3v-2.1h8.6v2.1h-3.1v9.1h-2.5L98.2,420.8L98.2,420.8z"/>
	</g>
	<g>
		<path class="st86" d="M85.9,372.8l-14.1,14.1c0.5,0.8,1.2,1.6,1.9,2.4L88,375L85.9,372.8z"/>
		<path class="st86" d="M77.7,364.6l-9.4,9.4c-0.1,1.3,0,2.7,0.2,4l11.3-11.3L77.7,364.6z"/>
		<path class="st87" d="M75.7,391.3c8.6,7.5,21.6,7.2,29.8-1c8.2-8.2,8.5-21.2,0.9-29.8L75.7,391.3z"/>
		<path class="st88" d="M104.4,358.6c-8.2-7.2-20.5-7.2-28.7,0L90.1,373L104.4,358.6z"/>
		<path class="st86" d="M73.7,360.6c-2.3,2.6-3.8,5.5-4.7,8.7l6.7-6.7L73.7,360.6z"/>
		<path class="st86" d="M81.8,368.7l-12.6,12.6c0.3,1,0.7,2,1.2,3l13.5-13.5L81.8,368.7z"/>
	</g>
</g>
<g id="WAV">
	<g>
		
			<radialGradient id="SVGID_57_" cx="-898.222" cy="-8149.8213" r="70.8921" gradientTransform="matrix(1 0 0 -4.870000e-02 1307.5 -259.8553)" gradientUnits="userSpaceOnUse">
			<stop  offset="0" style="stop-color:#3C3E3E"/>
			<stop  offset="0.1053" style="stop-color:#454646;stop-opacity:0.8947"/>
			<stop  offset="0.2673" style="stop-color:#5B5C5A;stop-opacity:0.7327"/>
			<stop  offset="0.4659" style="stop-color:#7F807E;stop-opacity:0.5341"/>
			<stop  offset="0.6933" style="stop-color:#B2B2AF;stop-opacity:0.3067"/>
			<stop  offset="0.942" style="stop-color:#F0EFED;stop-opacity:5.800000e-02"/>
			<stop  offset="1" style="stop-color:#FFFFFF;stop-opacity:0"/>
		</radialGradient>
		<ellipse class="st89" cx="409.3" cy="137" rx="76" ry="3.8"/>
		<g>
			
				<radialGradient id="SVGID_58_" cx="410.86" cy="529.669" r="64.2205" gradientTransform="matrix(1 0 0 -1 0 612)" gradientUnits="userSpaceOnUse">
				<stop  offset="0" style="stop-color:#FFFFFF"/>
				<stop  offset="0.3377" style="stop-color:#FAFAFA"/>
				<stop  offset="0.72" style="stop-color:#EDEDED"/>
				<stop  offset="1" style="stop-color:#DEDEDE"/>
			</radialGradient>
			<path class="st90" d="M370.9,26.7c-1.9,0-3.5,1.6-3.5,3.5v104.2c0,1.9,1.6,3.5,3.5,3.5h79.9c1.9,0,3.5-1.6,3.5-3.5v-84
				l-23.7-23.7C430.6,26.7,370.9,26.7,370.9,26.7z"/>
		</g>
		<path class="st2" d="M437.4,51.7l16.7-1.1l-23.6-23.7l-1.1,16.8C429.3,48.1,433,51.7,437.4,51.7z"/>
		<path class="st3" d="M437.9,51l16.2-0.5l-23.6-23.7L430,43.2C430,47.5,433.5,51,437.9,51z"/>
		<g class="st4">
			<path class="st5" d="M372.2,27.3h-0.9c-1.9,0-3.4,1.5-3.4,3.4v29.9h0.9V30.7C368.8,28.8,370.3,27.3,372.2,27.3z"/>
		</g>
		<g class="st14">
			<path class="st5" d="M430.9,43.1l0.4-15l-0.4-0.4L430.4,43c0,3.4,2.4,6.3,5.6,7.1C433,49.2,430.9,46.4,430.9,43.1z"/>
		</g>
	</g>
	<g>
		
			<linearGradient id="SVGID_59_" gradientUnits="userSpaceOnUse" x1="410.479" y1="501.609" x2="410.479" y2="473.524" gradientTransform="matrix(1 0 0 -1 0 612)">
			<stop  offset="0" style="stop-color:#47A348"/>
			<stop  offset="1" style="stop-color:#2D7836"/>
		</linearGradient>
		<path class="st91" d="M367.1,135c0,1.9,1.6,3.5,3.5,3.5h79.9c1.9,0,3.5-1.6,3.5-3.5v-24.6h-86.9L367.1,135L367.1,135z"/>
	</g>
	<g>
		<path class="st5" d="M395.5,130l-2.7-11.2h2.7l0.9,4.6c0.2,1.3,0.5,2.8,0.7,3.9h0c0.2-1.2,0.4-2.6,0.7-4l0.9-4.6h2.7l0.9,4.7
			c0.2,1.3,0.4,2.5,0.6,3.8h0c0.2-1.2,0.4-2.6,0.6-3.9l0.9-4.6h2.6l-2.9,11.2h-2.7l-0.9-4.8c-0.2-1.1-0.4-2.2-0.5-3.5h0
			c-0.2,1.3-0.4,2.3-0.6,3.5l-1.1,4.8L395.5,130z"/>
		<path class="st5" d="M410.2,127.2l-0.8,2.9h-2.6l3.4-11.2l3.3,0L417,130h-2.7l-0.9-2.9L410.2,127.2z M413.1,125.3l-0.7-2.4
			c-0.2-0.7-0.4-1.5-0.6-2.2h0c-0.2,0.7-0.3,1.5-0.5,2.2l-0.7,2.4H413.1z"/>
		<path class="st5" d="M420.2,130l-3.6-11.2l2.8,0l1.4,4.7c0.4,1.3,0.7,2.6,1,4h0c0.3-1.3,0.6-2.7,1-4l1.4-4.8l2.7,0l-3.8,11.2
			L420.2,130z"/>
	</g>
	<g>
		<g>
			<g>
				<path class="st51" d="M431.8,63.6c-0.9-2.3-2-4.5-3.6-6.4c-2.8-3.5-6.7-6.2-11.3-7.6c-12-3.5-24.6,3.4-28.1,15.3
					c-0.7,2.3-1,4.7-0.9,7c0.2,6.2,2.9,12.1,7.5,16.2c2.4,2.2,5.4,3.9,8.7,4.9c12,3.5,24.6-3.4,28.1-15.3
					C433.7,72.9,433.4,68,431.8,63.6z M404.6,91.6c-2.5-0.7-4.8-1.9-6.8-3.5l8.6-10.3c0.6,0.4,1.3,0.7,2,0.9
					c0.9,0.3,1.8,0.3,2.7,0.3l1.3,13.4C409.8,92.6,407.2,92.4,404.6,91.6z M404.5,69.5c1-3.3,4.5-5.2,7.8-4.2c3.3,1,5.2,4.5,4.2,7.8
					c-1,3.3-4.5,5.2-7.8,4.3C405.5,76.4,403.6,72.9,404.5,69.5z M415.1,65.1c-0.7-0.5-1.5-0.9-2.4-1.2c-0.8-0.2-1.6-0.3-2.3-0.3
					l-1.6-13.3c2.5-0.2,5.1,0,7.7,0.8c2.6,0.7,4.9,2,7,3.6L415.1,65.1z"/>
			</g>
		</g>
	</g>
	
		<linearGradient id="SVGID_60_" gradientUnits="userSpaceOnUse" x1="423.36" y1="508.126" x2="423.36" y2="538.079" gradientTransform="matrix(1 0 0 -1 0 612)">
		<stop  offset="0" style="stop-color:#47A348"/>
		<stop  offset="1" style="stop-color:#2D7836"/>
	</linearGradient>
	<path class="st92" d="M436.1,73.9l-18,3.2v0v20.6c-0.5-0.5-1.3-0.6-2.2-0.6c-1.1,0-2.4,0.5-3.4,1.4c-1,0.8-1.8,1.9-1.8,3
		c0,0.7,0.3,1.3,0.8,1.7c0.5,0.4,1.2,0.6,1.9,0.6c1.2,0,2.5-0.5,3.5-1.3c1-0.8,1.8-1.9,1.8-3.1V79.6l16.7-3v18.1
		c-0.5-0.5-1.3-0.6-2.2-0.6c-1.1,0-2.4,0.5-3.4,1.4c-1,0.8-1.8,1.9-1.8,3c0,0.7,0.3,1.3,0.8,1.7c0.5,0.4,1.2,0.6,1.9,0.6
		c1.2,0,2.5-0.5,3.5-1.3c1-0.8,1.8-1.9,1.8-3.1L436.1,73.9z"/>
</g>
<g id="XLS">
	<g>
		
			<radialGradient id="SVGID_61_" cx="-738.222" cy="-17390.0684" r="70.8905" gradientTransform="matrix(1 0 0 -4.870000e-02 1307.5 -259.8553)" gradientUnits="userSpaceOnUse">
			<stop  offset="0" style="stop-color:#3C3E3E"/>
			<stop  offset="0.1053" style="stop-color:#454646;stop-opacity:0.8947"/>
			<stop  offset="0.2673" style="stop-color:#5B5C5A;stop-opacity:0.7327"/>
			<stop  offset="0.4659" style="stop-color:#7F807E;stop-opacity:0.5341"/>
			<stop  offset="0.6933" style="stop-color:#B2B2AF;stop-opacity:0.3067"/>
			<stop  offset="0.942" style="stop-color:#F0EFED;stop-opacity:5.800000e-02"/>
			<stop  offset="1" style="stop-color:#FFFFFF;stop-opacity:0"/>
		</radialGradient>
		<ellipse class="st93" cx="569.3" cy="587" rx="76" ry="3.8"/>
		<g>
			
				<radialGradient id="SVGID_62_" cx="570.86" cy="79.6685" r="64.2205" gradientTransform="matrix(1 0 0 -1 0 612)" gradientUnits="userSpaceOnUse">
				<stop  offset="0" style="stop-color:#FFFFFF"/>
				<stop  offset="0.3377" style="stop-color:#FAFAFA"/>
				<stop  offset="0.72" style="stop-color:#EDEDED"/>
				<stop  offset="1" style="stop-color:#DEDEDE"/>
			</radialGradient>
			<path class="st94" d="M530.9,476.7c-1.9,0-3.5,1.6-3.5,3.5v104.2c0,1.9,1.6,3.5,3.5,3.5h79.9c1.9,0,3.5-1.6,3.5-3.5v-84
				l-23.7-23.7L530.9,476.7L530.9,476.7z"/>
		</g>
		<g>
			<rect x="557.3" y="517.8" class="st95" width="9.3" height="7.8"/>
			<line class="st95" x1="557.3" y1="517.8" x2="566.7" y2="517.8"/>
			<rect x="557.3" y="525.5" class="st95" width="9.3" height="7.8"/>
			<rect x="566.7" y="525.5" class="st95" width="9.3" height="7.8"/>
			<rect x="576" y="486.7" class="st95" width="9.3" height="7.8"/>
			<rect x="576" y="525.5" class="st95" width="9.3" height="7.8"/>
			<rect x="585.3" y="486.7" class="st95" width="9.3" height="7.8"/>
			<line class="st95" x1="538.7" y1="517.8" x2="548" y2="517.8"/>
			<rect x="566.7" y="541.1" class="st95" width="9.3" height="7.8"/>
			<rect x="557.3" y="541.1" class="st95" width="9.3" height="7.8"/>
			<rect x="576" y="541.1" class="st95" width="9.3" height="7.8"/>
			<rect x="548" y="541.1" class="st95" width="9.3" height="7.8"/>
			<rect x="538.7" y="517.8" class="st95" width="9.3" height="7.8"/>
			<rect x="538.7" y="541.1" class="st95" width="9.3" height="7.8"/>
			<rect x="538.7" y="525.5" class="st95" width="9.3" height="7.8"/>
			<rect x="585.3" y="541.1" class="st95" width="9.3" height="7.8"/>
			<line class="st95" x1="548" y1="517.8" x2="557.3" y2="517.8"/>
			<rect x="548" y="517.8" class="st95" width="9.3" height="7.8"/>
			<rect x="576" y="517.8" class="st95" width="9.3" height="7.8"/>
			<rect x="548" y="533.3" class="st95" width="9.3" height="7.8"/>
			<rect x="548" y="525.5" class="st95" width="9.3" height="7.8"/>
			<rect x="576" y="510" class="st95" width="9.3" height="7.8"/>
			<rect x="576" y="494.5" class="st95" width="9.3" height="7.8"/>
			<rect x="576" y="502.2" class="st95" width="9.3" height="7.8"/>
			<rect x="557.3" y="533.3" class="st95" width="9.3" height="7.8"/>
			<rect x="585.3" y="517.8" class="st95" width="9.3" height="7.8"/>
			<rect x="585.3" y="525.5" class="st95" width="9.3" height="7.8"/>
			<rect x="585.3" y="494.5" class="st95" width="9.3" height="7.8"/>
			<rect x="585.3" y="502.2" class="st95" width="9.3" height="7.8"/>
			<rect x="585.3" y="510" class="st95" width="9.3" height="7.8"/>
			<rect x="566.7" y="533.3" class="st95" width="9.3" height="7.8"/>
			<rect x="585.3" y="533.3" class="st95" width="9.3" height="7.8"/>
			<rect x="576" y="533.3" class="st95" width="9.3" height="7.8"/>
			<rect x="538.7" y="533.3" class="st95" width="9.3" height="7.8"/>
			<rect x="557.3" y="548.8" class="st95" width="9.3" height="9.4"/>
			<rect x="566.7" y="548.8" class="st95" width="9.3" height="9.4"/>
			<rect x="548" y="548.8" class="st95" width="9.3" height="9.4"/>
			<rect x="576" y="548.8" class="st95" width="9.3" height="9.4"/>
			<rect x="585.3" y="548.8" class="st95" width="9.3" height="9.4"/>
			<rect x="529.7" y="548.8" class="st95" width="9" height="9.4"/>
			<rect x="529.7" y="541.1" class="st95" width="9" height="7.8"/>
			<rect x="529.7" y="533.3" class="st95" width="9" height="7.8"/>
			<rect x="538.7" y="548.8" class="st95" width="9.3" height="9.4"/>
			<rect x="594.6" y="548.8" class="st95" width="8.8" height="9.4"/>
			<rect x="603.4" y="541.1" class="st95" width="8.8" height="7.8"/>
			<rect x="603.4" y="502.2" class="st95" width="8.8" height="7.8"/>
			<polygon class="st95" points="603.4,502.2 612.1,502.2 612.1,498.6 603.4,494.5 			"/>
			<rect x="603.4" y="510" class="st95" width="8.8" height="7.8"/>
			<rect x="603.4" y="517.8" class="st95" width="8.8" height="7.8"/>
			<rect x="603.4" y="533.3" class="st95" width="8.8" height="7.8"/>
			<rect x="603.4" y="548.8" class="st95" width="8.8" height="9.4"/>
			<rect x="529.7" y="525.5" class="st95" width="9" height="7.8"/>
			<rect x="603.4" y="525.5" class="st95" width="8.8" height="7.8"/>
			<rect x="576" y="478.4" class="st95" width="9.3" height="8.3"/>
			<rect x="594.6" y="502.2" class="st95" width="8.8" height="7.8"/>
			<rect x="594.6" y="494.5" class="st95" width="8.8" height="7.8"/>
			<polygon class="st95" points="594.6,494.5 603.4,494.5 601.1,488.9 594.6,486.7 			"/>
			<polygon class="st95" points="594.6,486.7 592,478.4 585.3,478.4 585.3,486.7 			"/>
			<rect x="594.6" y="510" class="st95" width="8.8" height="7.8"/>
			<rect x="594.6" y="525.5" class="st95" width="8.8" height="7.8"/>
			<rect x="529.7" y="517.8" class="st95" width="9" height="7.8"/>
			<rect x="594.6" y="517.8" class="st95" width="8.8" height="7.8"/>
			<rect x="594.6" y="533.3" class="st95" width="8.8" height="7.8"/>
			<rect x="566.7" y="517.8" class="st95" width="9.3" height="7.8"/>
			<rect x="594.6" y="541.1" class="st95" width="8.8" height="7.8"/>
			<line class="st95" x1="529.7" y1="517.8" x2="538.7" y2="517.8"/>
		</g>
		<path class="st2" d="M597.4,501.7l16.7-1.1l-23.6-23.7l-1.1,16.8C589.3,498.1,593,501.7,597.4,501.7z"/>
		<path class="st3" d="M597.9,501l16.2-0.5l-23.6-23.7l-0.5,16.3C590,497.5,593.5,501,597.9,501z"/>
		<g class="st4">
			<path class="st5" d="M532.2,477.3h-0.9c-1.9,0-3.4,1.5-3.4,3.4v29.9h0.9v-29.9C528.8,478.8,530.3,477.3,532.2,477.3z"/>
		</g>
		<g class="st14">
			<path class="st5" d="M590.9,493.1l0.4-15l-0.4-0.4l-0.4,15.3c0,3.4,2.4,6.3,5.6,7.1C593,499.2,590.9,496.4,590.9,493.1z"/>
		</g>
	</g>
	<g>
		
			<linearGradient id="SVGID_63_" gradientUnits="userSpaceOnUse" x1="570.861" y1="51.625" x2="570.861" y2="23.541" gradientTransform="matrix(1 0 0 -1 0 612)">
			<stop  offset="0" style="stop-color:#AFCB4E"/>
			<stop  offset="1" style="stop-color:#87A021"/>
		</linearGradient>
		<path class="st96" d="M527.4,585c0,1.9,1.6,3.5,3.5,3.5h79.9c1.9,0,3.5-1.6,3.5-3.5v-24.6h-86.9L527.4,585L527.4,585z"/>
	</g>
	<g>
		<path class="st5" d="M564.5,580l-1-2c-0.4-0.8-0.7-1.4-1-2h0c-0.2,0.6-0.5,1.2-0.9,2l-0.9,2h-2.9l3.2-5.7l-3.1-5.5l2.9,0l1,2
			c0.3,0.7,0.6,1.2,0.8,1.9l0,0c0.3-0.7,0.5-1.2,0.8-1.9l0.9-2h2.9l-3.2,5.5l3.3,5.7L564.5,580L564.5,580z"/>
		<path class="st5" d="M568.8,568.8h2.5l0,9.1h4.5v2.1h-7V568.8z"/>
		<path class="st5" d="M577.4,577.4c0.7,0.3,1.7,0.7,2.8,0.7c1.2,0,1.8-0.5,1.8-1.2c0-0.7-0.5-1.1-1.9-1.6c-1.9-0.7-3.1-1.7-3.1-3.3
			c0-1.9,1.6-3.4,4.2-3.4c1.3,0,2.2,0.3,2.9,0.6l-0.6,2c-0.4-0.2-1.2-0.5-2.3-0.5c-1.1,0-1.6,0.5-1.6,1.1c0,0.7,0.6,1,2.1,1.6
			c2,0.7,2.9,1.8,2.9,3.3c0,1.9-1.4,3.5-4.5,3.5c-1.3,0-2.5-0.3-3.2-0.7L577.4,577.4z"/>
	</g>
	
		<linearGradient id="SVGID_64_" gradientUnits="userSpaceOnUse" x1="550.502" y1="135.141" x2="550.502" y2="96.474" gradientTransform="matrix(1 0 0 -1 0 612)">
		<stop  offset="0" style="stop-color:#AFCB4E"/>
		<stop  offset="1" style="stop-color:#87A021"/>
	</linearGradient>
	<path class="st97" d="M544.6,508.4c1.7-2.7,3.1-4.8,4.3-7.1h0.2c1.6,2.3,2.9,4.3,5,7.1l5,7.1h14.5L557,495.4l15.1-18.5h-14.3
		l-4.2,6.5c-1.4,2.3-2.5,4-3.8,6.5h-0.2c-1.3-2.2-2.6-4.1-4.2-6.5l-4.4-6.5h-10.2c-1.2,0-2.3,0.6-2.9,1.6l13.7,17.1l-14.2,17.6v2.3
		h12.5L544.6,508.4z"/>
</g>
<g id="DOC">
	<g>
		
			<radialGradient id="SVGID_65_" cx="-1218.222" cy="-8149.8213" r="70.8921" gradientTransform="matrix(1 0 0 -4.870000e-02 1307.5 -259.8553)" gradientUnits="userSpaceOnUse">
			<stop  offset="0" style="stop-color:#3C3E3E"/>
			<stop  offset="0.1053" style="stop-color:#454646;stop-opacity:0.8947"/>
			<stop  offset="0.2673" style="stop-color:#5B5C5A;stop-opacity:0.7327"/>
			<stop  offset="0.4659" style="stop-color:#7F807E;stop-opacity:0.5341"/>
			<stop  offset="0.6933" style="stop-color:#B2B2AF;stop-opacity:0.3067"/>
			<stop  offset="0.942" style="stop-color:#F0EFED;stop-opacity:5.800000e-02"/>
			<stop  offset="1" style="stop-color:#FFFFFF;stop-opacity:0"/>
		</radialGradient>
		<ellipse class="st98" cx="89.3" cy="137" rx="76" ry="3.8"/>
		<g>
			
				<radialGradient id="SVGID_66_" cx="90.86" cy="529.669" r="64.2204" gradientTransform="matrix(1 0 0 -1 0 612)" gradientUnits="userSpaceOnUse">
				<stop  offset="0" style="stop-color:#FFFFFF"/>
				<stop  offset="0.3377" style="stop-color:#FAFAFA"/>
				<stop  offset="0.72" style="stop-color:#EDEDED"/>
				<stop  offset="1" style="stop-color:#DEDEDE"/>
			</radialGradient>
			<path class="st99" d="M50.9,26.7c-1.9,0-3.5,1.6-3.5,3.5v104.2c0,1.9,1.6,3.5,3.5,3.5h79.9c1.9,0,3.5-1.6,3.5-3.5v-84l-23.7-23.7
				C110.6,26.7,50.9,26.7,50.9,26.7z"/>
		</g>
		<g>
			<g>
				<rect x="79.3" y="35.9" class="st100" width="35.9" height="0.8"/>
			</g>
			<g>
				<rect x="79.3" y="43.9" class="st100" width="40.9" height="0.8"/>
			</g>
			<g>
				<g>
					<rect x="79.2" y="51.9" class="st100" width="54.7" height="0.8"/>
				</g>
				<g>
					<rect x="79.2" y="59.9" class="st100" width="54.7" height="0.8"/>
				</g>
				<g>
					<rect x="47.9" y="67.9" class="st100" width="86" height="0.8"/>
				</g>
				<g>
					<rect x="47.9" y="75.9" class="st100" width="86" height="0.8"/>
				</g>
				<g>
					<rect x="47.9" y="83.9" class="st100" width="86" height="0.8"/>
				</g>
				<g>
					<rect x="47.9" y="91.9" class="st100" width="86" height="0.8"/>
				</g>
				<g>
					<rect x="47.9" y="99.9" class="st100" width="86" height="0.8"/>
				</g>
			</g>
		</g>
		<path class="st2" d="M117.4,51.7l16.7-1.1l-23.6-23.7l-1.1,16.8C109.3,48.1,113,51.7,117.4,51.7z"/>
		<path class="st3" d="M117.9,51l16.2-0.5l-23.6-23.7L110,43.2C110,47.5,113.5,51,117.9,51z"/>
		<g class="st4">
			<path class="st5" d="M52.2,27.3h-0.9c-1.9,0-3.4,1.5-3.4,3.4v29.9h0.9V30.7C48.8,28.8,50.3,27.3,52.2,27.3z"/>
		</g>
		<g class="st14">
			<path class="st5" d="M110.9,43.1l0.4-15l-0.4-0.4L110.4,43c0,3.4,2.4,6.3,5.6,7.1C113,49.2,110.9,46.4,110.9,43.1z"/>
		</g>
	</g>
	<g>
		
			<linearGradient id="SVGID_67_" gradientUnits="userSpaceOnUse" x1="90.861" y1="502.166" x2="90.861" y2="474.081" gradientTransform="matrix(1 0 0 -1 0 612)">
			<stop  offset="0" style="stop-color:#3A83BB"/>
			<stop  offset="1" style="stop-color:#005194"/>
		</linearGradient>
		<path class="st101" d="M47.4,134.4c0,1.9,1.6,3.5,3.5,3.5h79.9c1.9,0,3.5-1.6,3.5-3.5v-24.6H47.4V134.4z"/>
	</g>
	<g>
		<path class="st5" d="M73.3,119.1c0.9-0.1,2.1-0.3,3.4-0.3c2.1,0,3.5,0.4,4.6,1.2c1.2,0.9,1.9,2.2,1.9,4.2c0,2.1-0.8,3.6-1.8,4.5
			c-1.2,1-3,1.4-5.2,1.4c-1.3,0-2.3-0.1-2.9-0.2L73.3,119.1z M75.9,128.2c0.2,0.1,0.6,0.1,0.9,0c2.3,0,3.8-1.2,3.8-3.9
			c0-2.3-1.4-3.6-3.6-3.6c-0.6,0-0.9,0.1-1.1,0.1C75.9,120.9,75.9,128.2,75.9,128.2z"/>
		<path class="st5" d="M95.2,124.4c0,3.7-2.2,5.9-5.5,5.9c-3.3,0-5.3-2.5-5.3-5.7c0-3.4,2.2-5.9,5.5-5.9
			C93.3,118.7,95.2,121.3,95.2,124.4z M87.1,124.5c0,2.2,1,3.8,2.7,3.8c1.7,0,2.7-1.6,2.7-3.8c0-2-0.9-3.8-2.7-3.8
			C88.1,120.7,87.1,122.4,87.1,124.5z"/>
		<path class="st5" d="M105.1,129.8c-0.4,0.2-1.5,0.5-2.9,0.5c-3.9,0-5.9-2.4-5.9-5.6c0-3.8,2.7-5.9,6.1-5.9c1.3,0,2.3,0.3,2.8,0.5
			l-0.5,2c-0.5-0.2-1.2-0.4-2.1-0.4c-2,0-3.6,1.2-3.6,3.7c0,2.2,1.3,3.7,3.6,3.7c0.8,0,1.6-0.1,2.1-0.4L105.1,129.8z"/>
	</g>
	
		<linearGradient id="SVGID_68_" gradientUnits="userSpaceOnUse" x1="67.907" y1="585.258" x2="67.907" y2="548.661" gradientTransform="matrix(1 0 0 -1 0 612)">
		<stop  offset="0" style="stop-color:#3A83BB"/>
		<stop  offset="1" style="stop-color:#005194"/>
	</linearGradient>
	<path class="st102" d="M60.2,63.3l3.4-16.1c0.9-3.8,1.4-7.3,2.1-11.5h0.1c0.4,4.3,1,7.8,1.7,11.5l3,16.1h8.8l9.1-36.6h-8.2
		l-2.8,14.5c-0.7,4.4-1.5,8.8-2.1,13h-0.1c-0.5-4.2-1.1-8.2-1.9-12.5l-2.7-14.9h-8.9l-2.9,14.5c-0.9,4.6-1.8,9.1-2.3,13.2h-0.1
		c-0.6-3.8-1.3-8.6-2.1-13l-2.6-14.6h-0.7c-1.9,0-3.5,1.6-3.5,3.5v16.2l3.9,16.9L60.2,63.3L60.2,63.3z"/>
</g>
</svg>
