<?xml version="1.0" encoding="utf-8"?>
<!-- Generator: Adobe Illustrator 23.0.3, SVG Export Plug-In . SVG Version: 6.00 Build 0)  -->
<svg version="1.1" id="Layer_1" xmlns="http://www.w3.org/2000/svg" xmlns:xlink="http://www.w3.org/1999/xlink" x="0px" y="0px"
	 viewBox="0 0 24 24" style="enable-background:new 0 0 24 24;" xml:space="preserve">
<style type="text/css">
	.st0{fill:#EBEBED;}
	.st1{fill:none;}
</style>
<path class="st0" d="M19,4.7v14H5v-14H19 M20.1,2.7H3.9C3.4,2.7,3,3.1,3,3.6v16.2c0,0.4,0.4,0.9,0.9,0.9h16.2c0.4,0,0.9-0.5,0.9-0.9
	V3.6C21,3.1,20.5,2.7,20.1,2.7z M10.8,7.5h6.7v0.8h-6.7V7.5z M7.7,8.5L6.9,7.6L6.6,7.9L7.7,9l2.4-2.4L9.9,6.4L7.7,8.5z M10.8,11.4
	h6.7v0.8h-6.7V11.4z M7.7,12.4l-0.8-0.8l-0.3,0.3L7.7,13l2.4-2.4l-0.3-0.3L7.7,12.4z M10.8,15.3h6.7v0.8h-6.7V15.3z M7.7,16.3
	l-0.8-0.8l-0.3,0.3l1.1,1.1l2.4-2.4l-0.3-0.3L7.7,16.3z"/>
<path class="st1" d="M0,0h24v24H0V0z"/>
</svg>
